<svg width="255" height="255" viewBox="0 0 255 255" fill="none" xmlns="http://www.w3.org/2000/svg">
<g clip-path="url(#clip0_3_2)">
<path d="M122.803 254.97C122.729 254.084 122.044 254.322 121.534 254.299C107.13 253.802 93.3502 250.507 80.0096 245.169C71.6394 241.819 63.6529 237.581 56.1873 232.526C51.3234 229.213 46.6851 225.58 42.3032 221.652C32.4914 212.9 24.1312 202.647 17.5346 191.273C10.1182 178.599 4.98388 164.722 2.36548 150.272C1.54679 145.8 1.02337 141.307 0.62745 136.774C0.291924 132.976 0.55699 129.194 0.355674 125.413C0.298634 124.406 0.721397 123.856 1.6139 123.527C16.518 118.038 31.2677 112.119 46.3698 107.194C53.7513 104.782 61.2302 102.728 68.8836 101.393C75.6993 100.235 82.6291 99.8972 89.5252 100.386C97.2926 100.899 104.808 102.674 111.291 107.338C118.225 112.331 121.845 119.125 122.152 127.721C122.4 134.804 119.582 140.773 115.777 146.467C113.344 150.111 110.408 153.282 107.258 156.281C102.648 160.67 97.4771 164.311 92.008 167.535C90.0419 168.689 88.0253 169.756 86.0323 170.867C85.6532 171.078 85.217 171.232 85.2539 171.823C85.2908 172.414 85.7438 172.554 86.1397 172.699C91.6625 174.739 97.1919 176.755 102.715 178.789C111.991 182.204 121.266 185.624 130.54 189.049C137.418 191.583 144.301 194.106 151.188 196.618C151.386 196.692 151.571 196.8 152.057 197.034C148.48 198.407 145.165 199.685 141.844 200.953C130.212 205.389 118.592 209.825 106.983 214.26C106.532 214.453 106.045 214.543 105.556 214.524C105.067 214.506 104.588 214.379 104.154 214.153C95.0949 210.006 86.0155 205.956 76.9463 201.853C71.7255 199.504 66.5248 197.088 61.3141 194.706C56.0038 192.27 50.6902 189.841 45.3732 187.418C45.015 187.269 44.6487 187.14 44.2761 187.032C43.8533 186.891 43.3769 186.697 43.0816 187.177C42.8367 187.593 43.2259 187.878 43.4473 188.183C47.7152 194.37 52.879 199.799 58.4487 204.748C68.0934 213.366 79.2979 220.059 91.4578 224.467C99.2326 227.256 107.292 229.178 115.488 230.198C132.835 232.284 150.427 229.912 166.602 223.306C175.63 219.644 184.085 214.705 191.71 208.64C194.008 206.805 196.3 204.95 198.333 202.782C200.138 200.866 202.779 200.557 205.084 199.665C216.113 195.39 227.182 191.223 238.237 187.022C238.589 186.892 238.965 186.814 239.734 186.6C237.918 189.69 236.378 192.548 234.617 195.253C230.664 201.292 226.41 207.107 221.531 212.485C215.118 219.592 207.936 225.966 200.118 231.49C194.671 235.349 188.916 238.751 182.909 241.663C175.056 245.459 166.846 248.466 158.399 250.638C152.551 252.121 146.61 253.209 140.616 253.896C138.321 254.168 135.979 254.507 133.627 254.322C133.103 254.282 132.311 253.987 132.191 254.973L122.803 254.97ZM57.7575 214.737L57.7072 214.686C58.4755 213.257 56.9321 213.207 56.3886 212.673C55.7444 212.032 55.5028 212.938 55.2075 213.328C53.4561 215.633 51.7851 217.998 49.9565 220.236C49.2251 221.132 49.6713 221.457 50.3122 221.88C50.953 222.303 51.4463 223.222 52.3253 222.045C53.4695 220.474 54.5734 218.86 56.0363 217.542C56.912 216.75 57.8078 216.492 58.6366 217.471C59.6432 218.662 60.4082 217.713 61.0054 217.163C61.8946 216.347 60.7303 215.985 60.3713 215.485C59.7036 214.566 58.7171 214.737 57.7575 214.737ZM77.1979 233.526L77.1711 233.503C77.2952 231.563 77.2113 229.581 77.5972 227.698C77.983 225.816 76.6778 225.742 75.6646 225.242C75.215 225.024 74.9063 225.242 74.8727 225.752C74.6378 229.185 74.3828 232.62 74.2017 236.056C74.1413 237.184 75.3123 237.123 75.943 237.579C76.5738 238.036 76.9496 237.556 77.359 237.173C79.6909 235.023 82.0194 232.872 84.3748 230.751C85.1096 230.08 84.9687 229.718 84.1634 229.279C83.2374 228.772 82.4455 228.624 81.6 229.45C80.1606 230.842 78.6675 232.157 77.1979 233.526ZM206.916 212.452C206.64 212.425 206.369 212.362 206.11 212.264C204.493 211.385 202.896 210.469 201.282 209.58C199.826 208.788 199.135 210.16 198.598 210.888C198.061 211.616 199.269 211.794 199.739 212.049C202.208 213.354 204.725 214.569 207.211 215.837C209.321 216.918 209.56 217.918 208.154 219.753C207.798 220.213 207.54 220.555 208.087 221.001C208.489 221.337 208.758 221.88 209.489 221.565C210.962 220.944 212.408 218.622 211.871 217.203C210.271 212.922 208.553 208.687 206.862 204.453C206.735 204.117 206.644 203.668 206.05 203.893C204.903 204.325 204.342 205.805 204.792 206.979C205.49 208.798 206.607 210.439 207.06 212.348L206.916 212.452ZM64.2936 124.9C61.5523 125.128 58.7742 125.151 56.0463 125.678C50.0326 126.807 44.1102 128.377 38.3272 130.375C34.0224 131.885 29.7713 133.546 25.4765 135.073C24.2519 135.512 24.0203 136.287 24.3257 137.422C24.4201 137.742 24.4852 138.069 24.5203 138.401C24.9934 144.293 26.2684 150.041 27.7984 155.724C29.5043 161.895 31.8384 167.874 34.7639 173.568C35.2605 174.551 35.7705 174.554 36.5992 174.215C38.6493 173.38 40.7027 172.538 42.7696 171.756C49.934 169.034 56.87 165.746 63.5118 161.922C67.6848 159.567 71.5704 156.737 75.0908 153.487C77.4865 151.228 79.6775 148.739 81.0162 145.769C82.7844 141.84 83.0763 137.693 81.1672 133.654C79.6808 130.506 77.4328 127.976 74.2017 126.607C71.0855 125.246 67.6858 124.66 64.2936 124.9ZM152.701 238.157C152.849 237.267 153.161 236.358 154.399 236.143C155.56 235.952 156.023 236.633 156.224 237.613C156.614 239.519 157.04 241.418 157.342 243.34C157.509 244.384 157.889 244.683 158.909 244.347C159.674 244.082 160.798 244.424 160.378 242.871C159.855 240.945 159.496 238.969 159.13 237.006C158.838 235.422 158.244 234.093 156.543 233.65C154.909 233.228 153.617 233.879 152.517 235.09C152.218 235.425 151.946 236.066 151.316 235.62C149.269 234.164 147.551 234.848 145.947 236.385C145.699 236.623 145.538 236.811 145.223 236.331C144.551 235.325 143.672 236.187 142.998 236.331C142.236 236.506 142.683 237.338 142.793 237.915C143.293 240.482 143.85 243.035 144.273 245.609C144.484 246.894 144.981 247.176 146.256 246.931C147.531 246.686 147.487 246.028 147.263 245.058C146.85 243.216 146.31 241.398 146.256 239.485C146.222 238.163 147.041 237.472 148.155 237.321C149.199 237.177 149.514 238.113 149.702 238.962C150.121 240.861 150.591 242.753 150.893 244.666C151.074 245.8 151.564 245.864 152.497 245.592C153.319 245.347 154.131 245.37 153.778 244.032C153.312 242.173 153.074 240.237 152.701 238.157ZM168.471 239.911C171.313 240.428 172.108 240.22 173.44 238.75C175.011 237.022 174.88 233.919 173.105 231.302C171.055 228.242 167.763 228.094 165.515 230.99C165.18 231.423 165.113 231.765 164.438 231.292C163.764 230.819 162.915 231.292 162.321 231.795C161.727 232.298 162.257 232.828 162.462 233.312C164.056 237.106 165.73 240.868 167.25 244.689C167.867 246.246 168.729 245.323 169.528 245.142C170.511 244.921 170.31 244.334 169.984 243.632C169.441 242.478 169.015 241.284 168.458 239.901L168.471 239.911ZM139.28 242.666C139.28 239.287 136.898 236.838 133.667 236.871C130.436 236.905 127.879 239.395 127.889 242.575C127.889 245.931 130.412 248.571 133.593 248.565C136.922 248.551 139.267 246.125 139.243 242.666H139.28ZM182.255 222.753C180.241 222.753 177.42 224.558 176.765 226.289C176.497 227.004 176.094 228.037 176.953 228.346C177.812 228.654 178.99 228.581 179.235 227.151C179.393 226.225 180.047 225.709 180.912 225.474C181.469 225.333 182.05 225.313 182.406 225.893C182.761 226.474 182.349 226.833 181.986 227.188C181.11 228.051 180.198 228.866 179.352 229.768C178.986 230.133 178.718 230.585 178.575 231.082C178.432 231.579 178.418 232.105 178.534 232.609C178.651 233.113 178.894 233.578 179.241 233.962C179.588 234.346 180.027 234.635 180.517 234.801C182.174 235.422 183.872 234.704 185.372 232.788C185.61 232.483 185.674 231.708 186.257 232.08C187.428 232.822 187.918 231.553 188.757 231.349C189.187 231.245 189.093 230.849 188.787 230.57C186.935 228.839 186.341 226.343 184.989 224.303C184.291 223.273 183.479 222.685 182.231 222.753H182.255ZM95.9605 237.08C96.5444 233.006 91.8839 230.473 88.7132 232.127C85.9853 233.55 84.6432 238.123 86.2102 240.774C87.6697 243.246 91.7363 244.048 93.8434 242.284C94.1789 241.998 94.6151 241.747 94.4071 241.21C94.1688 240.606 92.1557 240.096 91.5719 240.465C90.3807 241.213 89.2601 240.931 88.693 239.653C88.4783 239.177 88.0723 238.576 88.4682 238.079C88.8642 237.583 89.495 237.885 90.0184 238.056C91.3437 238.482 92.6825 238.885 93.991 239.358C95.2996 239.831 95.88 239.287 95.9572 238.016C95.9605 237.616 95.9605 237.217 95.9605 237.08ZM65.1861 219.723C64.1459 219.568 63.0689 219.797 62.6797 220.682C62.3777 221.353 63.3977 221.776 63.9648 222.189C64.3405 222.464 64.6861 222.296 65.0686 222.189C65.8974 221.931 66.5986 222.249 67.2395 222.763C67.7797 223.195 68.0011 223.769 67.7159 224.397C67.4005 225.088 66.763 224.829 66.2497 224.672C65.129 224.336 64.0419 223.87 62.8944 223.585C62.4489 223.465 61.9822 223.449 61.5293 223.536C61.0763 223.622 60.649 223.811 60.2793 224.087C59.9096 224.362 59.6072 224.718 59.3948 225.128C59.1823 225.537 59.0653 225.989 59.0526 226.45C58.9352 228.44 60.378 230.017 62.8038 230.392C63.6426 230.52 64.2801 230.513 64.6727 231.55C64.8573 232.04 66.3302 233.184 66.649 232.345C67.6555 229.742 69.5412 227.698 70.6015 225.175C70.9773 224.283 70.9605 223.37 70.37 222.628C69.0413 220.961 67.4039 219.77 65.176 219.723H65.1861ZM190.337 218.699C189.351 217.736 188.593 218.236 187.881 218.938C187.069 219.733 187.881 220.28 188.257 220.8C189.747 222.88 191.331 224.897 192.814 226.98C193.394 227.796 193.76 228.369 194.874 227.541C195.88 226.796 196.041 226.262 195.263 225.279C194.177 223.935 193.169 222.531 192.243 221.072C191.518 219.901 191.626 218.646 192.824 217.814C194.021 216.981 194.884 217.814 195.592 218.756C196.622 220.142 197.662 221.518 198.679 222.91C199.195 223.622 199.685 224.095 200.558 223.323C201.255 222.712 202 222.266 201.151 221.206C199.829 219.555 198.611 217.82 197.293 216.173C195.374 213.767 193.146 214.536 191.515 216.045C190.831 216.693 190.643 217.669 190.344 218.699H190.337ZM113.743 242.743C113.72 243.19 113.72 243.638 113.743 244.085C113.985 246.464 115.736 248.112 118.464 248.518C120.404 248.816 122.685 247.608 123.474 245.907C123.809 245.196 123.97 244.74 122.903 244.495C121.836 244.25 121.226 244.159 120.521 245.226C119.702 246.498 117.686 246.233 117.082 244.84C116.747 244.098 116.597 243.286 116.645 242.473C116.693 241.66 116.937 240.871 117.357 240.173C118.119 238.885 120.018 238.831 120.712 240.153C121.524 241.706 122.887 241.086 123.48 240.643C124.373 239.972 123.41 239.059 122.846 238.425C121.504 236.902 119.092 236.459 116.971 237.267C114.75 238.123 113.743 239.821 113.743 242.743ZM47.5609 208.184C47.3562 208.432 47.1515 208.691 46.9334 208.939C45.8329 210.197 44.6619 211.402 43.6419 212.724C42.2461 214.532 42.9071 216.619 45.0176 217.555C45.7088 217.861 46.0745 217.532 46.4402 217.082C46.7422 216.71 47.326 216.23 46.7086 215.831C45.4806 215.039 46.1148 214.331 46.7086 213.65C47.5441 212.677 48.4634 211.774 49.3358 210.831C49.7384 210.398 50.1578 210.211 50.594 210.741C51.1946 211.469 51.6744 211.261 52.218 210.65C52.6978 210.113 52.9226 209.61 52.275 209.09C51.5134 208.476 51.8019 207.986 52.3757 207.459C52.7884 207.083 53.1608 206.664 53.5467 206.261C54.0231 205.772 53.9761 205.624 53.285 205.255C51.2047 204.151 49.7217 206.315 47.8092 206.121C47.4736 206.087 46.6315 206.886 47.2656 207.711C47.3663 207.852 47.4468 207.999 47.5709 208.191L47.5609 208.184ZM105.214 231.725C105.396 231.053 104.701 230.983 104.117 230.852C103.064 230.617 102.319 230.825 102.074 232.077C101.275 236.157 100.43 240.227 99.5675 244.297C99.4299 244.944 99.1715 245.582 100.181 245.558C100.96 245.558 102.084 246.686 102.44 245.001C103.366 240.666 104.265 236.325 105.224 231.731L105.214 231.725Z" fill="#C3BADD"/>
<path d="M254.628 132.842C254.292 136.106 254.044 139.378 253.621 142.629C252.93 147.94 252.145 153.232 250.568 158.399C250.232 159.543 249.991 160.781 249.709 161.975C249.454 163.066 249.142 163.72 247.796 164.233C243.74 165.78 239.71 167.424 235.654 168.984C230.285 171.048 224.917 173.158 219.498 175.088C217.646 175.759 215.539 175.94 213.767 176.631C211.553 177.5 209.217 177.41 207.02 178.258C204.943 179.064 202.581 179.188 200.309 179.439C190.139 180.574 180.268 179.396 170.92 175.115C165.19 172.491 160.925 168.347 157.885 162.673C152.956 153.47 149.933 143.548 146.115 133.902C144.729 130.412 143.397 126.899 142.062 123.386C137.154 110.453 132.251 97.5185 127.352 84.5828C126.618 82.6401 125.896 80.6907 125.094 78.7749C124.722 77.8824 124.698 77.5066 125.802 77.0972C132.342 74.6882 138.831 72.1482 145.343 69.6687C149.43 68.1118 153.547 66.6489 157.6 65.0015C158.647 64.5821 158.942 64.8908 159.278 65.7564C162.472 74.281 165.678 82.8045 168.897 91.3269C171.105 97.1684 173.35 102.997 175.571 108.835C177.678 114.367 179.795 119.907 181.865 125.437C184.258 131.835 186.647 138.217 190.492 143.944C192.547 146.963 195.302 149.44 198.521 151.165C201.571 152.866 204.765 152.507 207.916 152.285C213.197 151.871 218.27 150.042 222.602 146.991C226.504 144.29 229.007 140.367 230.446 135.855C232.386 129.785 232.208 123.554 231.325 117.36C229.648 105.694 225.833 94.6553 221.041 83.9487C217.525 76.0907 212.888 68.9104 207.446 62.2435C195.635 47.7789 180.889 37.3877 163.492 30.7711C155.321 27.6899 146.786 25.6802 138.099 24.792C132.722 24.1779 127.303 24.005 121.897 24.2753C111.113 24.8603 100.486 27.1244 90.4008 30.9859C76.4892 36.3155 63.8981 44.5974 53.495 55.2611C43.0919 65.9249 35.1241 78.717 30.1403 92.7563C30.0502 93.1019 29.8786 93.4209 29.6398 93.6865C29.4011 93.9521 29.1021 94.1566 28.768 94.2829C20.3497 97.4737 11.9447 100.702 3.53307 103.906C3.2311 104.02 2.77814 104.154 2.57682 104.017C2.21446 103.768 2.45603 103.325 2.53321 102.946C8.10568 74.9745 22.8424 49.6581 44.4136 30.9993C60.6564 17.0179 79.2882 7.86809 100.134 3.15059C105.657 1.87315 111.274 1.05059 116.931 0.691179C117.357 0.664337 117.897 0.76835 117.773 0.0201263H135.891C136.073 0.791837 136.71 0.620718 137.234 0.664337C138.841 0.798547 140.458 0.8321 142.048 1.0569C148.962 1.98415 155.801 3.39799 162.516 5.28789C174.917 8.88403 186.704 14.3329 197.477 21.4502C202.536 24.7596 207.32 28.4702 211.784 32.546C214.901 35.4047 217.971 38.3238 220.884 41.357C224.044 44.6451 226.806 48.3326 229.57 51.9999C233.556 57.3228 237.123 62.9475 240.237 68.8232C244.089 76.0269 247.025 83.6165 249.36 91.4443C251.677 99.3141 253.25 107.384 254.057 115.549C254.272 117.639 253.96 119.783 254.628 121.826V132.842ZM140.7 11.8877C140.622 11.8105 140.545 11.7333 140.465 11.6595C140.424 9.13302 140.995 6.67361 141.277 4.18401C141.394 3.16065 141.173 2.72111 140.109 2.76138C139.662 2.74611 139.218 2.68426 138.784 2.57684C138.113 2.46611 137.734 2.63723 137.643 3.39217C136.972 8.87467 136.267 14.3538 135.593 19.833C135.378 21.5676 136.838 20.8228 137.569 21.0643C138.301 21.3059 139.153 21.4703 139.223 20.1953C139.274 19.3062 139.425 18.4204 139.559 17.5413C139.633 17.1534 139.817 16.7949 140.089 16.5083C140.361 16.2217 140.709 16.019 141.092 15.9241C141.837 15.7261 141.763 16.7461 142.008 17.2125C142.466 17.9803 142.805 18.8128 143.015 19.682C143.444 21.722 144.793 22.242 146.645 22.2857C147.575 22.3091 147.749 22.1481 147.377 21.2959C146.504 19.3028 145.769 17.2427 144.816 15.2933C144.119 13.8639 144.172 12.8976 145.615 11.9783C146.796 11.2301 147.796 10.1899 149.014 9.15986C146.471 8.37809 144.337 8.0694 142.615 10.3208C142.134 11.0105 141.471 11.5529 140.7 11.8877ZM119.199 8.79749C117.431 7.56276 115.844 7.09302 114.039 7.69361C111.019 8.70019 109.593 11.673 110.251 15.6758C111.187 21.3797 115.545 23.1144 120.102 19.531C120.467 21.6012 122.017 20.7724 123.091 20.6248C124.286 20.457 123.631 19.3632 123.584 18.6888C123.249 13.6224 122.762 8.56263 122.497 3.49282C122.403 1.72796 121.363 2.28828 120.454 2.27822C119.424 2.27822 118.572 2.32184 118.803 3.80822C119.035 5.2946 119.058 6.90513 119.199 8.79749ZM65.6558 38.5654C69.6016 38.5855 72.9098 35.5255 72.9803 31.7978C73.0541 27.8722 69.6989 24.3122 65.9343 24.3156C62.3575 24.3156 58.9117 27.5803 58.8513 31.0261C58.7741 34.8947 62.0925 38.5486 65.6558 38.5654ZM48.7687 52.1173C50.7416 53.2178 51.3623 51.3557 51.973 50.4028C52.6441 49.366 50.9262 49.6512 50.49 49.0372C50.1175 48.507 49.4834 48.1816 48.9801 47.7286C47.4602 46.3362 45.9604 44.9136 44.4472 43.5211C43.9837 43.0636 43.3817 42.7723 42.7353 42.6928C42.0889 42.6133 41.4344 42.75 40.8738 43.0816C38.7499 44.2089 37.1058 45.853 36.2536 48.1547C35.8409 49.2687 36.1261 50.3591 36.5891 51.4026C36.7032 51.6509 36.7972 51.9193 37.1528 51.916C37.8977 51.916 39.3774 50.084 39.3035 49.262C39.1995 48.1178 40.2631 46.6214 41.3637 46.3496C41.6082 46.2875 41.8647 46.2891 42.1084 46.3543C42.3522 46.4195 42.5752 46.5461 42.7561 46.722C43.2963 47.1918 42.9373 47.638 42.7024 48.0641C41.9408 49.4264 41.0651 50.7484 40.4007 52.1374C39.5216 53.9996 40.0048 55.7812 41.5214 56.9086C43.0379 58.036 45.0444 57.9756 46.5945 56.6436C47.94 55.4893 48.6513 54.0197 48.7687 52.1173ZM155.6 16.5079C152.933 16.4609 151.138 17.85 151 20.2758C150.876 22.4769 152.628 24.2351 155.265 24.5907C156.156 24.6711 157.054 24.5648 157.902 24.2787C158.268 24.178 158.623 23.9432 158.791 24.5706C159.211 26.1576 160.764 26.01 161.784 26.0268C162.673 26.0435 162.032 24.7518 162.234 24.0673C162.512 23.1043 162.68 22.1112 162.945 21.1415C163.341 19.6887 163.827 18.2593 164.183 16.7998C164.448 15.706 164.519 14.582 163.807 13.5754C162.365 11.5455 157.432 10.3275 155.218 11.4515C154.576 11.7984 154.028 12.2958 153.621 12.901C153.456 13.1325 153.322 13.3305 153.533 13.6358C154.033 14.3471 156.047 14.8336 156.781 14.3068C157.959 13.468 159.016 13.9277 160.056 14.5216C160.325 14.6742 160.534 14.9153 160.646 15.2039C160.757 15.4925 160.766 15.811 160.67 16.1053C160.486 16.8937 159.851 16.7461 159.328 16.726C158.154 16.6924 156.986 16.5985 155.6 16.5079ZM212.13 46.467C213.636 46.3798 214.438 47.3461 215.022 48.5406C215.297 49.1043 214.982 49.6143 214.586 50.0538C214.079 50.6108 213.69 50.141 213.271 49.9196C211.791 49.1345 210.563 47.9433 208.999 47.2857C207.587 46.6952 206.265 46.769 205.07 47.7521C204.48 48.189 204.032 48.7904 203.781 49.4809C203.531 50.1715 203.491 50.9205 203.664 51.6341C204.114 53.7782 205.51 54.9324 207.547 55.5229C207.946 55.6403 208.926 55.382 208.701 56.2241C208.261 57.8749 209.63 58.593 210.449 59.2003C211.267 59.8076 211.21 58.1434 211.861 57.7911C211.908 57.7642 211.972 57.7508 212.002 57.7105C213.479 55.7309 215.468 54.2647 217.176 52.5166C218.428 51.2382 219.015 49.8122 218.203 48.1279C217.723 47.1207 217.117 46.1782 216.401 45.3229C214.905 43.5647 212.304 42.8266 210.516 43.5345C210.18 43.6687 209.714 43.6855 209.714 44.2291C209.731 44.9874 211.382 46.5509 212.13 46.467ZM190.881 28.0601C190.837 25.4765 189.435 23.7284 187.15 22.6514C184.771 21.5274 182.543 21.9803 180.631 23.7049C179.014 25.1189 177.957 27.0649 177.651 29.1908C177.295 31.5864 178.279 33.4251 180.208 34.7974C182.308 36.2872 184.526 36.871 186.918 35.5255C187.254 35.3309 187.818 35.19 187.757 34.633C187.677 33.8714 185.278 32.5125 184.6 32.8816C184.198 33.1405 183.719 33.2552 183.243 33.2071C182.767 33.1589 182.322 32.9507 181.979 32.6165C181.61 32.3146 181.33 31.9174 181.171 31.4679C181.011 31.0184 180.977 30.5338 181.073 30.0665C181.228 29.0968 181.51 28.6204 182.57 29.325C183.774 30.1269 185.073 30.7845 186.328 31.5059C189.435 33.2943 190.119 32.9554 190.767 29.2982C190.844 28.9089 190.844 28.5197 190.881 28.0601ZM95.4841 12.8775C94.9942 10.3745 93.4709 11.8709 92.4845 11.9716C91.2497 12.1024 91.9879 13.1157 92.112 13.6995C92.8368 17.085 93.7192 20.4369 94.3701 23.8324C94.7056 25.5772 95.6921 24.9732 96.6852 24.8088C97.7556 24.6343 98.3964 24.3592 98.0274 22.9835C97.4157 20.7189 96.9273 18.4228 96.5645 16.1053C96.5021 15.7567 96.5122 15.3991 96.594 15.0546C96.6759 14.7101 96.8278 14.3862 97.0402 14.1029C97.2526 13.8196 97.5211 13.5831 97.8289 13.4081C98.1367 13.2331 98.4772 13.1233 98.8293 13.0855C100.319 12.901 100.933 13.8572 101.245 15.0987C101.732 17.0481 102.195 19.0042 102.664 20.957C103.366 23.866 102.876 23.2184 105.684 22.7218C106.476 22.5809 106.728 22.242 106.54 21.4703C105.832 18.5949 105.231 15.6959 104.429 12.8473C103.808 10.653 102.205 9.77052 99.9365 9.97855C98.0139 10.1732 96.6685 11.2468 95.4841 12.8775ZM86.4248 26.5368C87.0959 28.8318 88.2098 27.4393 89.1829 27.1575C90.478 26.7817 89.8539 25.9966 89.5486 25.3255C88.0891 22.0642 86.5859 18.823 85.1465 15.5516C84.3513 13.7432 83.4018 15.2161 82.5596 15.4174C81.7174 15.6187 81.2577 16.0314 81.7778 17.0951C82.8146 19.1921 83.7507 21.3462 84.6231 23.5237C85.2572 25.1141 84.6231 26.6005 83.2206 27.1307C81.6302 27.7312 80.8249 26.7951 80.2344 25.5201C79.2278 23.3392 78.1977 21.1583 77.2448 18.9673C76.9295 18.2325 76.6141 17.9976 75.9027 18.4305C75.3659 18.7346 74.8047 18.9939 74.2251 19.2055C73.6849 19.4135 73.5373 19.7222 73.7956 20.2356C75.2216 23.0775 76.2383 26.1174 77.8891 28.8485C78.7681 30.3014 80.1136 30.8282 81.751 30.6235C84.0325 30.3182 85.3981 28.8553 86.4181 26.5368H86.4248ZM192.287 42.3434C192.958 42.3132 193.136 41.8502 193.384 41.5012C196.427 37.2434 199.39 32.8816 202.537 28.6942C203.805 27.0166 202.252 26.8589 201.547 26.1543C200.638 25.2483 200.131 25.6577 199.507 26.5569C196.615 30.7309 193.652 34.8578 190.737 39.0184C190.401 39.4847 189.586 39.988 190.032 40.5383C190.646 41.2966 191.586 41.7965 192.287 42.3434ZM50.6645 35.5658C49.0304 34.3545 48.2889 35.8812 47.4837 36.6193C46.6784 37.3575 47.8494 37.8407 48.2151 38.3272C50.2685 41.0416 52.4696 43.6453 54.4693 46.3966C55.3719 47.6414 55.9456 47.0676 56.6905 46.3966C57.3616 45.7859 58.5929 45.4772 57.4085 44.1385C55.8801 42.4402 54.5204 40.5973 53.3487 38.6359C52.7078 37.5454 52.3689 36.1093 53.7379 35.5926C55.6806 34.8612 54.8418 33.8278 54.5129 32.697C54.2445 31.7743 53.7211 31.7945 52.9863 32.1032C51.4731 32.7306 50.6645 33.8177 50.6645 35.5658ZM178.708 18.8666C178.548 18.6151 178.366 18.3782 178.164 18.1587C177.158 17.3232 176.084 16.7763 174.776 17.2528C174.155 17.4742 173.88 17.7862 173.635 16.7226C173.413 15.7462 171.997 15.7899 171.095 15.4409C170.625 15.2597 170.521 15.8201 170.38 16.1757C168.991 19.7021 167.592 23.2218 166.213 26.7582C166.099 27.0468 165.743 27.4293 166.052 27.6742C166.85 28.2754 167.783 28.6727 168.77 28.8318C169.612 28.9928 169.578 28.0433 169.796 27.5534C170.716 25.4631 171.303 23.2251 172.568 21.2959C173.437 19.9739 174.454 19.7625 175.695 20.5174C176.031 20.7221 176.259 21.4468 176.759 21.0006C177.449 20.3271 178.1 19.6147 178.708 18.8666ZM198.91 47.7219C199.437 47.7487 199.605 47.4367 199.819 47.1918C202.255 44.3834 204.641 41.5281 207.151 38.7868C208.187 37.6561 207.359 37.0757 206.691 36.512C206.023 35.9483 205.292 35.19 204.285 36.4482C202.131 39.1492 199.772 41.6858 197.538 44.323C197.202 44.7324 196.286 45.1082 196.783 45.7691C197.373 46.5409 198.239 47.1146 198.91 47.7118V47.7219ZM208.64 31.7643C208.379 31.7643 206.607 33.7036 206.587 34.0324C206.557 34.4921 208.6 36.4247 209.03 36.2368C209.972 35.8376 210.479 34.9316 211.043 34.1197C211.19 33.8882 209.033 31.7743 208.644 31.7542L208.64 31.7643Z" fill="#04A694"/>
<path d="M152.701 238.157C153.074 240.23 153.312 242.183 153.802 244.048C154.154 245.391 153.342 245.364 152.52 245.609C151.594 245.88 151.098 245.817 150.916 244.683C150.614 242.763 150.145 240.871 149.725 238.979C149.537 238.13 149.222 237.194 148.178 237.338C147.065 237.496 146.246 238.18 146.279 239.502C146.323 241.415 146.863 243.233 147.286 245.075C147.501 246.045 147.588 246.692 146.279 246.947C144.971 247.202 144.508 246.91 144.296 245.625C143.874 243.052 143.317 240.499 142.817 237.932C142.706 237.365 142.26 236.523 143.021 236.348C143.692 236.19 144.585 235.341 145.246 236.348C145.561 236.828 145.722 236.64 145.971 236.402C147.585 234.865 149.302 234.181 151.339 235.637C151.97 236.083 152.242 235.442 152.54 235.107C153.627 233.895 154.919 233.244 156.567 233.667C158.268 234.107 158.862 235.435 159.154 237.022C159.519 238.985 159.878 240.962 160.402 242.887C160.821 244.441 159.697 244.099 158.932 244.364C157.926 244.699 157.533 244.417 157.365 243.357C157.063 241.435 156.637 239.536 156.248 237.63C156.047 236.65 155.577 235.952 154.423 236.16C153.161 236.358 152.849 237.267 152.701 238.157Z" fill="#FBFBFA"/>
<path d="M168.458 239.901C169.015 241.274 169.464 242.468 169.988 243.622C170.323 244.324 170.514 244.911 169.531 245.132C168.733 245.313 167.871 246.236 167.253 244.679C165.733 240.858 164.059 237.096 162.465 233.302C162.261 232.818 161.757 232.275 162.324 231.785C162.891 231.295 163.727 230.778 164.441 231.282C165.156 231.785 165.183 231.413 165.519 230.98C167.767 228.084 171.058 228.232 173.108 231.292C174.866 233.909 174.997 236.996 173.444 238.74C172.095 240.237 171.3 240.428 168.458 239.901ZM169.481 238.224C170.689 238.147 171.35 237.408 171.605 236.382C171.957 234.983 170.682 232.51 169.414 231.812C168.34 231.221 167.475 231.587 166.73 232.382C165.586 233.61 166.186 234.895 166.783 236.073C167.344 237.187 168.079 238.177 169.481 238.224Z" fill="#FBFBFA"/>
<path d="M207.053 212.324C206.6 210.405 205.483 208.764 204.785 206.956C204.336 205.782 204.896 204.302 206.043 203.869C206.637 203.644 206.714 204.111 206.855 204.429C208.533 208.674 210.264 212.908 211.865 217.179C212.402 218.612 210.955 220.934 209.483 221.541C208.734 221.857 208.476 221.306 208.08 220.978C207.533 220.531 207.791 220.189 208.147 219.729C209.566 217.894 209.315 216.894 207.204 215.814C204.718 214.546 202.202 213.331 199.732 212.026C199.252 211.771 198.011 211.637 198.591 210.865C199.172 210.093 199.826 208.764 201.276 209.556C202.889 210.442 204.487 211.358 206.104 212.24C206.364 212.339 206.636 212.402 206.912 212.428C206.993 212.556 207.07 212.683 207.147 212.811C207.409 212.596 207.201 212.465 207.053 212.324Z" fill="#FBFBFA"/>
<path d="M139.243 242.666C139.243 246.125 136.895 248.551 133.539 248.558C130.369 248.558 127.856 245.921 127.836 242.569C127.836 239.395 130.345 236.908 133.613 236.865C136.881 236.821 139.243 239.287 139.243 242.666ZM136.224 242.737C136.224 240.811 135.016 239.23 133.59 239.277C132.066 239.324 130.889 240.73 130.869 242.518C130.849 244.659 131.895 245.937 133.67 245.941C135.321 245.941 136.24 244.79 136.224 242.737Z" fill="#FBFBFA"/>
<path d="M182.231 222.753C183.479 222.685 184.291 223.273 184.976 224.306C186.318 226.346 186.922 228.842 188.774 230.574C189.072 230.852 189.173 231.245 188.744 231.352C187.905 231.557 187.402 232.825 186.244 232.084C185.66 231.711 185.596 232.486 185.358 232.792C183.865 234.711 182.161 235.429 180.503 234.805C180.013 234.638 179.574 234.349 179.228 233.965C178.881 233.582 178.638 233.116 178.521 232.612C178.404 232.108 178.418 231.583 178.561 231.086C178.705 230.589 178.972 230.137 179.339 229.772C180.184 228.883 181.097 228.054 181.973 227.192C182.335 226.836 182.738 226.467 182.392 225.896C182.047 225.326 181.456 225.336 180.899 225.477C180.023 225.698 179.369 226.215 179.221 227.155C178.976 228.584 177.772 228.641 176.94 228.349C176.108 228.057 176.483 227.007 176.752 226.292C177.396 224.558 180.235 222.749 182.231 222.753ZM184.58 230.134C184.415 229.523 184.563 228.651 183.573 228.52C183.05 228.45 181.164 230.533 181.191 231.114C181.228 231.973 181.741 232.503 182.57 232.456C183.885 232.339 184.469 231.456 184.566 230.134H184.58Z" fill="#FBFBFA"/>
<path d="M95.9605 237.08C95.9605 237.227 95.9807 237.616 95.9605 238.006C95.8834 239.287 95.3297 239.844 93.9944 239.348C92.659 238.851 91.347 238.472 90.0217 238.046C89.4983 237.875 88.8843 237.549 88.4716 238.069C88.0589 238.589 88.4716 239.167 88.6964 239.643C89.2634 240.921 90.374 241.203 91.5752 240.455C92.159 240.086 94.1722 240.596 94.4104 241.2C94.6184 241.737 94.1856 241.988 93.8467 242.273C91.7396 244.038 87.673 243.236 86.2135 240.764C84.6466 238.113 85.9887 233.54 88.7165 232.117C91.8738 230.473 96.5343 233.006 95.9605 237.08ZM93.33 236.039C93.3329 235.762 93.2991 235.486 93.2293 235.217C93.0707 234.796 92.7691 234.444 92.3772 234.223C91.9853 234.001 91.528 233.925 91.0853 234.006C90.2901 234.1 89.4782 234.677 89.4077 235.432C89.3171 236.405 90.468 236.143 91.0417 236.479C91.3983 236.629 91.7649 236.753 92.1389 236.851C92.9676 237.217 93.4273 237.053 93.3199 236.039H93.33Z" fill="#FBFBFA"/>
<path d="M65.176 219.723C67.4039 219.773 69.0412 220.961 70.3666 222.628C70.9571 223.37 70.9739 224.283 70.5981 225.175C69.5378 227.698 67.6421 229.742 66.6456 232.345C66.3268 233.184 64.8539 232.04 64.6693 231.55C64.2768 230.513 63.6393 230.52 62.8004 230.392C60.3746 230.017 58.9318 228.44 59.0493 226.45C59.0597 225.987 59.1753 225.533 59.3873 225.121C59.5993 224.709 59.9021 224.351 60.2729 224.074C60.6436 223.797 61.0726 223.607 61.5274 223.52C61.9821 223.433 62.4507 223.451 62.8978 223.571C64.0318 223.856 65.1189 224.319 66.253 224.658C66.7664 224.816 67.4039 225.074 67.7193 224.383C68.0045 223.763 67.783 223.182 67.2428 222.749C66.602 222.236 65.9007 221.917 65.072 222.175C64.6895 222.296 64.3439 222.464 63.9681 222.175C63.401 221.763 62.381 221.353 62.683 220.669C63.0588 219.797 64.1358 219.568 65.176 219.723ZM63.6124 225.782C62.6058 225.745 61.8207 226.068 61.8643 227.007C61.9147 228.158 62.7702 228.708 63.8775 228.775C64.6861 228.822 66.5617 227.302 66.2429 226.876C65.6122 226.011 64.4647 226.007 63.6124 225.782Z" fill="#FBFBFA"/>
<path d="M190.344 218.699C190.643 217.669 190.831 216.686 191.532 216.042C193.162 214.532 195.39 213.764 197.31 216.17C198.628 217.82 199.846 219.555 201.168 221.202C202.017 222.263 201.272 222.709 200.574 223.32C199.695 224.091 199.212 223.618 198.695 222.907C197.689 221.514 196.639 220.139 195.608 218.753C194.901 217.8 194.078 216.948 192.84 217.81C191.602 218.673 191.535 219.897 192.26 221.068C193.185 222.527 194.194 223.932 195.28 225.276C196.058 226.259 195.894 226.792 194.89 227.537C193.776 228.366 193.411 227.792 192.83 226.977C191.347 224.893 189.764 222.877 188.274 220.796C187.905 220.276 187.086 219.729 187.898 218.934C188.599 218.236 189.358 217.736 190.344 218.699Z" fill="#FBFBFA"/>
<path d="M113.743 242.743C113.743 239.821 114.75 238.123 116.971 237.267C119.092 236.459 121.501 236.902 122.846 238.425C123.41 239.059 124.373 239.975 123.48 240.643C122.887 241.086 121.524 241.706 120.712 240.153C120.024 238.834 118.125 238.885 117.357 240.173C116.937 240.871 116.693 241.66 116.645 242.473C116.597 243.286 116.747 244.098 117.082 244.84C117.686 246.239 119.702 246.498 120.521 245.226C121.216 244.149 121.887 244.267 122.903 244.495C123.92 244.723 123.803 245.196 123.474 245.907C122.685 247.608 120.404 248.816 118.464 248.518C115.736 248.102 113.985 246.464 113.743 244.085C113.72 243.638 113.72 243.19 113.743 242.743Z" fill="#FBFBFA"/>
<path d="M77.1979 233.526C78.6675 232.184 80.1606 230.842 81.5967 229.45C82.4422 228.624 83.234 228.779 84.1601 229.279C84.9653 229.718 85.1063 230.087 84.3715 230.751C82.0228 232.872 79.6741 235.023 77.3556 237.173C76.9429 237.556 76.5738 238.036 75.9397 237.579C75.3055 237.123 74.1379 237.184 74.1983 236.056C74.3828 232.62 74.6378 229.185 74.8694 225.752C74.9029 225.242 75.2049 225.024 75.6612 225.242C76.6678 225.742 77.9696 225.86 77.5938 227.698C77.218 229.537 77.2919 231.563 77.1677 233.503L77.0369 233.657L77.1979 233.526Z" fill="#FBFBFA"/>
<path d="M47.5709 208.191C47.4468 207.999 47.3662 207.855 47.2622 207.721C46.6281 206.896 47.4702 206.097 47.8058 206.131C49.7183 206.325 51.2013 204.161 53.2816 205.265C53.9727 205.631 54.0197 205.778 53.5433 206.272C53.1574 206.674 52.785 207.094 52.3723 207.469C51.7985 207.996 51.51 208.476 52.2716 209.1C52.9192 209.62 52.6944 210.107 52.2146 210.66C51.671 211.271 51.1912 211.479 50.5906 210.751C50.1545 210.221 49.735 210.415 49.3324 210.841C48.46 211.784 47.5407 212.687 46.7052 213.66C46.1248 214.331 45.4906 215.049 46.7052 215.841C47.3226 216.24 46.7388 216.72 46.4368 217.092C46.0711 217.542 45.7054 217.871 45.0142 217.565C42.9037 216.629 42.2427 214.546 43.6385 212.734C44.6451 211.412 45.8295 210.207 46.93 208.949C47.1616 208.697 47.3662 208.439 47.5709 208.191Z" fill="#FBFBFA"/>
<path d="M105.224 231.731C104.265 236.325 103.366 240.666 102.45 245.008C102.094 246.686 100.97 245.548 100.191 245.565C99.1849 245.588 99.4399 244.951 99.5775 244.303C100.44 240.233 101.285 236.164 102.084 232.084C102.329 230.832 103.074 230.624 104.127 230.859C104.711 230.99 105.406 231.057 105.224 231.731Z" fill="#FBFBFA"/>
<path d="M57.7575 214.737C58.7003 214.737 59.7036 214.556 60.3578 215.475C60.7169 215.978 61.8811 216.341 60.992 217.153C60.3948 217.703 59.6298 218.652 58.6232 217.461C57.7944 216.482 56.8986 216.74 56.0228 217.532C54.56 218.85 53.4561 220.464 52.3119 222.035C51.4463 223.226 50.9363 222.283 50.2988 221.87C49.6613 221.457 49.2117 221.122 49.9431 220.226C51.7717 217.988 53.4426 215.623 55.1941 213.318C55.4894 212.928 55.7309 212.022 56.3752 212.663C56.9187 213.203 58.4621 213.254 57.6971 214.676L57.5663 214.854L57.7575 214.737Z" fill="#FBFBFA"/>
<path d="M119.199 8.7975C119.058 6.90513 119.041 5.33822 118.803 3.80822C118.565 2.27822 119.424 2.26816 120.454 2.27822C121.363 2.27822 122.403 1.72796 122.497 3.49283C122.762 8.56263 123.239 13.6224 123.584 18.6888C123.631 19.3599 124.286 20.457 123.091 20.6248C122.017 20.7724 120.467 21.6012 120.102 19.531C115.545 23.1144 111.187 21.363 110.251 15.6758C109.58 11.673 111.016 8.70355 114.039 7.69362C115.837 7.09303 117.434 7.56276 119.199 8.7975ZM119.672 14.837C119.561 13.7566 119.578 12.6259 118.974 11.6361C118.417 10.7167 117.632 10.1664 116.518 10.2134C116.011 10.2075 115.515 10.3625 115.102 10.6561C114.688 10.9497 114.378 11.3667 114.217 11.8474C113.545 13.7633 113.626 15.706 114.784 17.4306C115.837 19.0042 117.877 18.927 118.978 17.3903C119.531 16.6153 119.608 15.7395 119.672 14.8269V14.837Z" fill="#F1F9F8"/>
<path d="M140.7 11.8877C141.474 11.5563 142.141 11.0161 142.626 10.3275C144.347 8.07612 146.481 8.3848 149.024 9.16658C147.806 10.1966 146.806 11.2368 145.625 11.985C144.182 12.9043 144.129 13.8707 144.827 15.3C145.78 17.2494 146.504 19.3095 147.387 21.3026C147.759 22.1548 147.585 22.3091 146.655 22.2924C144.803 22.2488 143.454 21.7287 143.025 19.6887C142.816 18.8195 142.476 17.987 142.018 17.2192C141.757 16.7528 141.847 15.7328 141.102 15.9308C140.721 16.0274 140.375 16.2308 140.105 16.5173C139.835 16.8038 139.653 17.1614 139.579 17.548C139.441 18.4271 139.29 19.3129 139.243 20.202C139.173 21.477 138.324 21.316 137.589 21.0711C136.855 20.8261 135.398 21.5743 135.613 19.8397C136.284 14.3538 136.992 8.87467 137.663 3.39888C137.754 2.64395 138.143 2.47283 138.804 2.58355C139.238 2.69098 139.682 2.75282 140.129 2.76809C141.193 2.72783 141.414 3.16737 141.297 4.19072C141.015 6.68033 140.445 9.13974 140.485 11.6663C140.458 11.7904 140.428 11.9145 140.398 12.0387L140.7 11.8877Z" fill="#F1F9F8"/>
<path d="M65.6558 38.5654C62.0925 38.5654 58.7741 34.8746 58.8446 31.0295C58.905 27.5803 62.3509 24.319 65.9276 24.319C69.6989 24.319 73.0541 27.8755 72.9736 31.8012C72.9099 35.5255 69.6016 38.5855 65.6558 38.5654ZM62.4079 30.5832C62.4079 32.8682 64.4915 35.2806 66.5114 35.2806C66.9016 35.2819 67.2882 35.2062 67.649 35.0577C68.0099 34.9091 68.3378 34.6908 68.614 34.4152C68.8902 34.1396 69.1093 33.8122 69.2586 33.4517C69.408 33.0912 69.4846 32.7047 69.4841 32.3145C69.4841 30.0866 67.3401 27.6172 65.3572 27.5635C64.566 27.5741 63.8114 27.8979 63.2586 28.4639C62.7057 29.03 62.3998 29.7921 62.4079 30.5832Z" fill="#F1F9F8"/>
<path d="M48.7688 52.1173C48.6346 54.0097 47.94 55.4726 46.6046 56.6368C45.0545 57.979 43.0849 58.0628 41.5315 56.9019C39.978 55.741 39.5183 53.9929 40.4108 52.1307C41.0819 50.7249 41.9509 49.4197 42.7125 48.0574C42.9474 47.638 43.3064 47.1918 42.7662 46.7153C42.5853 46.5394 42.3623 46.4128 42.1185 46.3476C41.8748 46.2824 41.6183 46.2808 41.3738 46.3429C40.2732 46.6147 39.2096 48.1111 39.3136 49.2553C39.3874 50.0773 37.9078 51.9026 37.1629 51.9093C36.8073 51.9093 36.7133 51.6442 36.5992 51.3959C36.1261 50.3524 35.8409 49.262 36.2637 48.148C37.1159 45.8463 38.76 44.2022 40.8839 43.0749C41.4445 42.7433 42.099 42.6066 42.7454 42.6861C43.3918 42.7656 43.9937 43.0569 44.4572 43.5144C45.9772 44.9068 47.477 46.3295 48.9902 47.7219C49.4834 48.1749 50.1276 48.5003 50.5001 49.0305C50.9363 49.6445 52.6474 49.366 51.9831 50.3961C51.3624 51.3557 50.7417 53.2178 48.7688 52.1173ZM46.7757 51.963C46.8059 50.4934 46.0611 49.8659 45.3867 49.2016C45.3453 49.1449 45.2898 49.1001 45.2257 49.0717C45.1616 49.0433 45.0911 49.0323 45.0214 49.0398C44.9517 49.0473 44.8852 49.073 44.8285 49.1144C44.7719 49.1557 44.7272 49.2113 44.6988 49.2754C44.0815 50.2652 43.3366 51.208 43.0581 52.3589C42.7796 53.5097 44.0076 54.513 45.1652 54.0634C45.606 53.9032 45.9918 53.6204 46.2771 53.2483C46.5625 52.8761 46.7355 52.4302 46.7757 51.963Z" fill="#F1F9F8"/>
<path d="M155.6 16.5079C156.986 16.5985 158.154 16.6924 159.325 16.7394C159.851 16.7595 160.486 16.9072 160.667 16.1187C160.765 15.8223 160.756 15.501 160.643 15.2101C160.53 14.9192 160.319 14.6769 160.046 14.5249C159.006 13.9311 157.949 13.4714 156.771 14.3102C156.037 14.8336 154.023 14.3471 153.523 13.6392C153.312 13.3338 153.446 13.1359 153.611 12.9043C154.018 12.2991 154.566 11.8017 155.208 11.4549C157.412 10.3309 162.354 11.5488 163.797 13.5788C164.512 14.5853 164.438 15.7093 164.173 16.8032C163.817 18.2627 163.331 19.692 162.935 21.1449C162.67 22.1145 162.502 23.1077 162.224 24.0707C162.022 24.7417 162.663 26.0469 161.774 26.0301C160.767 26.0301 159.201 26.161 158.781 24.574C158.613 23.9432 158.258 24.1814 157.892 24.282C157.044 24.5682 156.146 24.6745 155.255 24.5941C152.628 24.2351 150.876 22.4803 150.987 20.2759C151.138 17.8634 152.933 16.4609 155.6 16.5079ZM156.959 22.3058C158.362 22.2756 159.851 20.9301 159.643 19.6216C159.435 18.313 158.16 19.2861 157.449 18.9505C157.23 18.8953 157.001 18.8851 156.778 18.9203C155.651 18.9203 154.637 19.2559 154.711 20.5409C154.788 21.7656 155.748 22.2924 156.959 22.3058Z" fill="#F1F9F8"/>
<path d="M212.13 46.467C211.372 46.5509 209.731 44.9874 209.727 44.2291C209.727 43.6855 210.19 43.6688 210.529 43.5345C212.318 42.8266 214.918 43.5647 216.414 45.3229C217.131 46.1782 217.736 47.1207 218.216 48.1279C219.028 49.8055 218.441 51.2382 217.19 52.5166C215.482 54.2647 213.499 55.7309 212.016 57.7105C211.986 57.7508 211.922 57.7642 211.875 57.7911C211.224 58.1266 211.241 59.774 210.462 59.2003C209.684 58.6265 208.275 57.8749 208.714 56.2242C208.939 55.382 207.959 55.6403 207.56 55.5229C205.523 54.9324 204.127 53.7782 203.678 51.6342C203.503 50.9219 203.541 50.1737 203.789 49.4833C204.037 48.7928 204.482 48.1907 205.07 47.7521C206.265 46.769 207.587 46.6952 208.999 47.2857C210.563 47.9568 211.791 49.1345 213.271 49.9196C213.69 50.1411 214.079 50.6108 214.586 50.0538C214.982 49.6143 215.297 49.1043 215.022 48.5406C214.438 47.3461 213.636 46.3798 212.13 46.467ZM212.351 52.114C211.539 51.5704 210.778 51.0268 209.979 50.5437C209.308 50.1377 208.6 49.7015 207.805 50.2283C207.516 50.4068 207.294 50.6739 207.17 50.9896C207.046 51.3053 207.027 51.6527 207.117 51.9797C207.215 52.3896 207.425 52.764 207.725 53.0604C208.024 53.3569 208.401 53.5637 208.811 53.6574C210.254 54.0868 211.284 53.4024 212.351 52.114Z" fill="#F1F9F8"/>
<path d="M190.881 28.0601C190.844 28.5164 190.844 28.9089 190.777 29.2914C190.129 32.9487 189.435 33.2876 186.338 31.4992C185.083 30.7778 183.785 30.1202 182.58 29.3183C181.52 28.6137 181.238 29.0901 181.084 30.0598C180.987 30.527 181.021 31.0117 181.181 31.4612C181.34 31.9107 181.62 32.3079 181.989 32.6098C182.332 32.944 182.777 33.1522 183.253 33.2003C183.729 33.2485 184.208 33.1337 184.61 32.8749C185.281 32.5058 187.687 33.8814 187.767 34.6263C187.828 35.19 187.277 35.3242 186.928 35.5188C184.526 36.8609 182.308 36.2805 180.218 34.7907C178.289 33.4184 177.306 31.5797 177.661 29.1841C177.969 27.0606 179.025 25.1172 180.641 23.7049C182.553 21.9971 184.781 21.5274 187.16 22.6514C189.435 23.7284 190.837 25.4765 190.881 28.0601ZM185.257 25.1812C184.281 25.1443 183.402 25.5436 183.08 26.4026C182.701 27.4091 183.872 27.3622 184.375 27.7447C184.992 28.201 185.717 28.4996 186.388 28.9157C187.059 29.3317 187.355 29.1707 187.559 28.4392C188.026 26.7414 186.965 25.2047 185.257 25.1812Z" fill="#F1F9F8"/>
<path d="M95.484 12.8775C96.6685 11.2468 98.0139 10.1732 99.9365 9.99532C102.205 9.7873 103.808 10.6664 104.429 12.8641C105.231 15.7127 105.832 18.6116 106.54 21.4871C106.728 22.2588 106.476 22.5977 105.684 22.7386C102.876 23.2352 103.366 23.8828 102.664 20.9737C102.195 19.021 101.732 17.0649 101.245 15.1155C100.933 13.8707 100.319 12.9144 98.8292 13.1023C98.4772 13.14 98.1367 13.2499 97.8289 13.4249C97.5211 13.5999 97.2526 13.8364 97.0402 14.1197C96.8277 14.4029 96.6759 14.7269 96.594 15.0714C96.5122 15.4158 96.5021 15.7735 96.5644 16.122C96.9252 18.4383 97.4113 20.7333 98.0206 22.997C98.3964 24.3726 97.7556 24.6478 96.6785 24.8222C95.672 24.9866 94.6989 25.5906 94.3634 23.8458C93.7125 20.4503 92.83 17.0984 92.1053 13.713C91.9812 13.1291 91.243 12.1158 92.4777 11.985C93.4843 11.8709 94.9942 10.3745 95.484 12.8775Z" fill="#F1F9F8"/>
<path d="M86.4182 26.5368C85.4116 28.8855 84.0326 30.3182 81.7409 30.6101C80.1036 30.8147 78.7581 30.2745 77.879 28.8351C76.2282 26.1039 75.1948 23.0641 73.7856 20.2222C73.5273 19.7088 73.6749 19.4001 74.2151 19.1921C74.7947 18.9804 75.3558 18.7212 75.8927 18.417C76.6208 17.9842 76.9362 18.2191 77.2348 18.9539C78.1877 21.1583 79.2178 23.3157 80.2244 25.5067C80.8149 26.7884 81.6201 27.7178 83.2105 27.1172C84.6198 26.5871 85.2472 25.1041 84.613 23.5103C83.7407 21.3328 82.8046 19.1787 81.7678 17.0816C81.2477 16.0314 81.7208 15.602 82.5496 15.404C83.3783 15.206 84.3413 13.7264 85.1365 15.5382C86.5759 18.8096 88.079 22.0508 89.5386 25.3121C89.8372 25.9832 90.468 26.7683 89.1728 27.1441C88.2032 27.4393 87.0758 28.8318 86.4182 26.5368Z" fill="#F1F9F8"/>
<path d="M192.287 42.3434C191.572 41.7965 190.646 41.2966 190.032 40.5383C189.586 39.988 190.411 39.4847 190.737 39.0184C193.652 34.8578 196.615 30.7309 199.507 26.5569C200.131 25.6577 200.638 25.2484 201.547 26.1543C202.252 26.8589 203.805 27.0032 202.537 28.6942C199.39 32.8816 196.427 37.2434 193.384 41.5013C193.136 41.8502 192.961 42.3132 192.287 42.3434Z" fill="#F1F9F8"/>
<path d="M50.6645 35.5658C50.6645 33.811 51.4731 32.7239 52.9695 32.0965C53.7043 31.7878 54.2278 31.7609 54.4962 32.6903C54.8317 33.8211 55.6638 34.8545 53.7211 35.5859C52.3522 36.1026 52.691 37.5387 53.3319 38.6291C54.5084 40.5948 55.8738 42.4411 57.4085 44.1418C58.593 45.484 57.3784 45.7893 56.6905 46.3999C55.9457 47.071 55.3719 47.6414 54.4693 46.3999C52.4562 43.6486 50.2685 41.0315 48.2151 38.3305C47.8494 37.844 46.6952 37.3474 47.4837 36.6227C48.2722 35.898 49.0305 34.3613 50.6645 35.5658Z" fill="#F1F9F8"/>
<path d="M178.708 18.8666C178.104 19.6143 177.458 20.3268 176.772 21.0006C176.272 21.4468 176.047 20.7221 175.708 20.5174C174.467 19.7625 173.45 19.9739 172.581 21.2959C171.316 23.2251 170.729 25.4631 169.81 27.5534C169.592 28.0433 169.625 28.9928 168.783 28.8318C167.792 28.6748 166.854 28.2774 166.052 27.6742C165.743 27.4226 166.099 27.0468 166.213 26.7582C167.592 23.2251 168.991 19.7122 170.38 16.1757C170.521 15.8201 170.625 15.2597 171.095 15.4409C171.998 15.7764 173.413 15.7462 173.635 16.7226C173.88 17.7862 174.155 17.4742 174.776 17.2528C176.084 16.7864 177.171 17.3232 178.148 18.1587C178.355 18.3775 178.543 18.6144 178.708 18.8666Z" fill="#F1F9F8"/>
<path d="M198.91 47.7118C198.239 47.1146 197.373 46.5409 196.783 45.7591C196.286 45.088 197.192 44.7223 197.538 44.313C199.772 41.6757 202.131 39.1391 204.285 36.4382C205.292 35.1799 205.993 35.9114 206.691 36.5019C207.389 37.0924 208.187 37.646 207.151 38.7768C204.641 41.518 202.255 44.3733 199.819 47.1817C199.605 47.4266 199.437 47.7387 198.91 47.7118Z" fill="#F1F9F8"/>
<path d="M208.644 31.7542C209.026 31.7743 211.19 33.8747 211.033 34.1029C210.482 34.9149 209.976 35.8208 209.019 36.2201C208.58 36.408 206.547 34.4753 206.577 34.0157C206.61 33.6935 208.382 31.7408 208.644 31.7542Z" fill="#F1F9F8"/>
<path d="M169.481 238.224C168.079 238.177 167.344 237.187 166.797 236.086C166.2 234.895 165.599 233.61 166.743 232.396C167.481 231.6 168.347 231.235 169.427 231.825C170.696 232.523 171.971 234.996 171.618 236.395C171.35 237.408 170.689 238.147 169.481 238.224Z" fill="#C3BADD"/>
<path d="M207.053 212.324C207.201 212.465 207.409 212.596 207.154 212.821C207.077 212.693 207 212.566 206.919 212.438L207.053 212.324Z" fill="#C3BADD"/>
<path d="M136.224 242.737C136.224 244.79 135.308 245.941 133.67 245.941C131.895 245.941 130.849 244.659 130.869 242.518C130.889 240.73 132.067 239.324 133.59 239.277C135.029 239.23 136.224 240.811 136.224 242.737Z" fill="#C3BADD"/>
<path d="M184.566 230.134C184.469 231.456 183.895 232.339 182.553 232.439C181.724 232.503 181.211 231.973 181.174 231.097C181.147 230.523 183.033 228.433 183.556 228.504C184.539 228.651 184.402 229.524 184.566 230.134Z" fill="#C3BADD"/>
<path d="M93.3199 236.039C93.4273 237.046 92.9676 237.204 92.1322 236.851C91.7582 236.753 91.3916 236.629 91.035 236.479C90.4612 236.143 89.3104 236.405 89.401 235.432C89.4681 234.667 90.2801 234.09 91.0786 234.006C91.5213 233.925 91.9786 234.001 92.3705 234.223C92.7624 234.444 93.064 234.796 93.2226 235.217C93.2912 235.486 93.3239 235.762 93.3199 236.039Z" fill="#C3BADD"/>
<path d="M63.6125 225.782C64.4647 226.007 65.6256 226.011 66.2564 226.876C66.5752 227.302 64.6996 228.822 63.8909 228.775C62.7703 228.708 61.9147 228.158 61.8778 227.007C61.8207 226.068 62.5925 225.745 63.6125 225.782Z" fill="#C3BADD"/>
<path d="M77.1979 233.526L77.0402 233.657L77.1711 233.503L77.1979 233.526Z" fill="#C3BADD"/>
<path d="M57.7575 214.737L57.5797 214.864L57.7105 214.687L57.7575 214.737Z" fill="#C3BADD"/>
<path d="M119.672 14.8269C119.608 15.7395 119.531 16.6153 118.978 17.3803C117.877 18.917 115.837 18.9942 114.784 17.4205C113.626 15.6959 113.549 13.7532 114.217 11.8374C114.378 11.3567 114.688 10.9396 115.102 10.646C115.515 10.3524 116.011 10.1975 116.518 10.2034C117.636 10.1564 118.417 10.7067 118.974 11.626C119.578 12.6158 119.561 13.7566 119.672 14.8269Z" fill="#04A694"/>
<path d="M140.7 11.8877L140.364 12.032C140.394 11.9078 140.424 11.7837 140.451 11.6595C140.545 11.7434 140.622 11.8105 140.7 11.8877Z" fill="#04A694"/>
<path d="M62.4079 30.5832C62.3998 29.7921 62.7057 29.03 63.2586 28.4639C63.8114 27.8979 64.5661 27.5741 65.3572 27.5635C67.3401 27.6004 69.4976 30.0866 69.4842 32.3145C69.4846 32.7047 69.408 33.0912 69.2586 33.4517C69.1093 33.8122 68.8903 34.1396 68.614 34.4152C68.3378 34.6908 68.0099 34.9091 67.649 35.0577C67.2882 35.2062 66.9016 35.2819 66.5114 35.2806C64.4848 35.2806 62.3844 32.8816 62.4079 30.5832Z" fill="#04A694"/>
<path d="M46.7757 51.963C46.7355 52.4302 46.5625 52.8762 46.2771 53.2483C45.9918 53.6204 45.606 53.9032 45.1652 54.0634C44.0076 54.513 42.7729 53.5399 43.0581 52.3589C43.3433 51.1778 44.0647 50.2652 44.6988 49.2754C44.7272 49.2113 44.7719 49.1557 44.8285 49.1144C44.8852 49.073 44.9517 49.0473 45.0214 49.0398C45.0911 49.0323 45.1616 49.0433 45.2257 49.0717C45.2898 49.1001 45.3453 49.1449 45.3867 49.2016C46.0611 49.8659 46.8059 50.4934 46.7757 51.963Z" fill="#04A694"/>
<path d="M156.959 22.3058C155.748 22.3058 154.788 21.7656 154.718 20.5275C154.644 19.2357 155.657 18.8935 156.785 18.9069C157.008 18.8716 157.236 18.8819 157.456 18.9371C158.167 19.2894 159.435 18.2661 159.65 19.6082C159.865 20.9503 158.368 22.2756 156.959 22.3058Z" fill="#04A694"/>
<path d="M212.351 52.114C211.284 53.4024 210.254 54.0868 208.811 53.6641C208.401 53.5704 208.024 53.3636 207.725 53.0671C207.425 52.7707 207.215 52.3963 207.117 51.9864C207.027 51.6594 207.046 51.312 207.17 50.9963C207.294 50.6806 207.516 50.4135 207.805 50.235C208.6 49.7082 209.311 50.1444 209.979 50.5504C210.778 51.0268 211.539 51.5704 212.351 52.114Z" fill="#04A694"/>
<path d="M185.257 25.1813C186.965 25.2047 188.026 26.7414 187.549 28.4325C187.344 29.1639 187.026 29.3183 186.378 28.9089C185.731 28.4996 184.992 28.1943 184.365 27.738C183.862 27.3622 182.687 27.4024 183.07 26.3959C183.402 25.5436 184.281 25.1443 185.257 25.1813Z" fill="#04A694"/>
</g>
<defs>
<clipPath id="clip0_3_2">
<rect width="255" height="255" fill="white"/>
</clipPath>
</defs>
</svg>
