<svg width="450" height="37" viewBox="0 0 450 37" fill="none" xmlns="http://www.w3.org/2000/svg">
<g clip-path="url(#clip0_639_105)">
<path d="M17.8183 36.9957C17.8076 36.8672 17.7083 36.9017 17.6343 36.8983C15.5443 36.8263 13.5448 36.3482 11.6092 35.5736C10.3946 35.0876 9.23582 34.4726 8.15257 33.7392C7.44684 33.2585 6.77383 32.7314 6.13802 32.1614C4.71435 30.8915 3.5013 29.4037 2.54415 27.7535C1.46804 25.9145 0.723063 23.9009 0.343138 21.8043C0.224348 21.1553 0.148401 20.5034 0.0909537 19.8457C0.0422695 19.2946 0.08073 18.7459 0.0515195 18.1973C0.0432432 18.0512 0.104585 17.9714 0.234085 17.9237C2.39664 17.1272 4.5368 16.2684 6.72807 15.5537C7.79913 15.2037 8.8843 14.9057 9.99478 14.712C10.9837 14.544 11.9892 14.495 12.9898 14.5659C14.1169 14.6404 15.2074 14.8979 16.148 15.5746C17.1541 16.2991 17.6794 17.2849 17.7239 18.5322C17.7599 19.5599 17.351 20.426 16.7989 21.2522C16.4459 21.7809 16.0199 22.241 15.5628 22.6762C14.8939 23.313 14.1437 23.8412 13.3501 24.3091C13.0648 24.4766 12.7722 24.6314 12.483 24.7925C12.428 24.8232 12.3647 24.8456 12.3701 24.9313C12.3754 25.0169 12.4412 25.0374 12.4986 25.0583C13.3 25.3543 14.1023 25.6469 14.9036 25.9419C16.2496 26.4376 17.5954 26.9338 18.941 27.4307C19.939 27.7984 20.9377 28.1645 21.937 28.529C21.9657 28.5397 21.9925 28.5553 22.0631 28.5894C21.5441 28.7885 21.0631 28.974 20.5812 29.158C18.8934 29.8016 17.2073 30.4452 15.5229 31.0888C15.4576 31.1167 15.3869 31.1298 15.3159 31.1271C15.245 31.1244 15.1755 31.106 15.1125 31.0733C13.798 30.4715 12.4806 29.8839 11.1647 29.2885C10.4071 28.9477 9.65253 28.5972 8.89647 28.2515C8.12596 27.8981 7.35496 27.5456 6.58348 27.1941C6.5315 27.1725 6.47836 27.1538 6.42428 27.1381C6.36294 27.1177 6.29381 27.0894 6.25097 27.1591C6.21543 27.2194 6.2719 27.2608 6.30403 27.3051C6.9233 28.2028 7.67255 28.9906 8.4807 29.7086C9.88014 30.9591 11.5059 31.9303 13.2703 32.5698C14.3984 32.9744 15.5677 33.2533 16.757 33.4013C19.274 33.704 21.8266 33.3598 24.1736 32.4014C25.4835 31.87 26.7103 31.1533 27.8166 30.2734C28.1501 30.0071 28.4826 29.7379 28.7776 29.4234C29.0396 29.1454 29.4227 29.1006 29.7572 28.9711C31.3574 28.3508 32.9635 27.7462 34.5677 27.1367C34.6188 27.1177 34.6733 27.1065 34.7848 27.0753C34.5214 27.5237 34.2979 27.9385 34.0423 28.3309C33.4688 29.2072 32.8515 30.0509 32.1437 30.8313C31.2131 31.8625 30.171 32.7873 29.0366 33.5888C28.2464 34.1487 27.4112 34.6424 26.5396 35.0649C25.4002 35.6157 24.2089 36.052 22.9832 36.3672C22.1347 36.5823 21.2727 36.7402 20.403 36.8399C20.07 36.8793 19.7302 36.9285 19.3889 36.9017C19.3129 36.8959 19.198 36.8531 19.1805 36.9962L17.8183 36.9957ZM8.38041 31.158L8.37311 31.1507C8.4846 30.9433 8.26065 30.936 8.18178 30.8586C8.08831 30.7656 8.05326 30.897 8.01041 30.9535C7.75628 31.288 7.51384 31.6312 7.24851 31.9559C7.14238 32.0859 7.20713 32.1331 7.30011 32.1945C7.3931 32.2558 7.46466 32.3892 7.59222 32.2183C7.75823 31.9905 7.9184 31.7563 8.13066 31.565C8.25773 31.4501 8.38772 31.4126 8.50797 31.5548C8.65402 31.7276 8.76502 31.5898 8.85168 31.51C8.98069 31.3917 8.81176 31.3391 8.75966 31.2665C8.66278 31.1331 8.51965 31.158 8.38041 31.158ZM11.2012 33.8843L11.1973 33.8809C11.2153 33.5995 11.2031 33.3118 11.2591 33.0386C11.3151 32.7655 11.1257 32.7548 10.9787 32.6823C10.9135 32.6506 10.8687 32.6823 10.8638 32.7563C10.8297 33.2543 10.7927 33.7528 10.7664 34.2514C10.7577 34.4149 10.9276 34.4062 11.0191 34.4724C11.1106 34.5386 11.1652 34.469 11.2245 34.4135C11.5629 34.1014 11.9008 33.7894 12.2425 33.4817C12.3492 33.3843 12.3287 33.3317 12.2119 33.2679C12.0775 33.1944 11.9626 33.173 11.8399 33.2928C11.6311 33.4948 11.4144 33.6857 11.2012 33.8843ZM30.023 30.8264C29.983 30.8225 29.9437 30.8134 29.9061 30.7992C29.6715 30.6716 29.4397 30.5387 29.2056 30.4097C28.9943 30.2948 28.894 30.4939 28.8161 30.5996C28.7382 30.7052 28.9135 30.731 28.9816 30.768C29.3399 30.9574 29.7051 31.1336 30.0658 31.3177C30.372 31.4744 30.4066 31.6195 30.2026 31.8858C30.151 31.9525 30.1135 32.0022 30.1929 32.0669C30.2513 32.1156 30.2903 32.1945 30.3964 32.1487C30.6101 32.0586 30.8199 31.7217 30.742 31.5158C30.5098 30.8946 30.2606 30.2802 30.0152 29.6658C29.9967 29.6171 29.9835 29.5519 29.8974 29.5845C29.7309 29.6473 29.6496 29.862 29.7148 30.0324C29.8161 30.2963 29.9782 30.5343 30.0439 30.8113L30.023 30.8264ZM9.32878 18.1228C8.93103 18.1559 8.52793 18.1593 8.13213 18.2357C7.25955 18.3995 6.40022 18.6273 5.56111 18.9173C4.93649 19.1364 4.31966 19.3774 3.69651 19.5989C3.51881 19.6627 3.48522 19.7751 3.52952 19.9397C3.54322 19.9861 3.55267 20.0337 3.55776 20.0818C3.6264 20.9367 3.8114 21.7707 4.0334 22.5954C4.28093 23.4907 4.6196 24.3582 5.04409 25.1844C5.11614 25.3271 5.19014 25.3276 5.31039 25.2784C5.60785 25.1572 5.9058 25.035 6.20569 24.9215C7.24523 24.5266 8.25164 24.0495 9.21535 23.4946C9.82084 23.153 10.3846 22.7423 10.8954 22.2707C11.243 21.943 11.561 21.5818 11.7552 21.1509C12.0118 20.5808 12.0541 19.9791 11.7771 19.3929C11.5614 18.9363 11.2353 18.5692 10.7664 18.3706C10.3143 18.173 9.82098 18.088 9.32878 18.1228ZM22.1566 34.5561C22.178 34.4271 22.2233 34.2952 22.4029 34.264C22.5714 34.2363 22.6386 34.3351 22.6678 34.4773C22.7242 34.7538 22.7861 35.0293 22.8299 35.3083C22.8542 35.4597 22.9092 35.503 23.0572 35.4544C23.1682 35.4159 23.3313 35.4656 23.2705 35.2401C23.1945 34.9607 23.1424 34.6739 23.0894 34.3891C23.047 34.1594 22.9608 33.9666 22.714 33.9023C22.4769 33.841 22.2895 33.9354 22.1298 34.1112C22.0865 34.1598 22.047 34.2528 21.9555 34.1881C21.6585 33.9768 21.4093 34.0761 21.1766 34.2991C21.1405 34.3336 21.1172 34.3609 21.0714 34.2913C20.974 34.1452 20.8465 34.2704 20.7486 34.2913C20.6381 34.3166 20.7029 34.4373 20.7189 34.5211C20.7915 34.8935 20.8723 35.264 20.9336 35.6374C20.9643 35.8239 21.0364 35.8648 21.2214 35.8292C21.4064 35.7937 21.4 35.6983 21.3674 35.5576C21.3075 35.2903 21.2292 35.0264 21.2214 34.7489C21.2165 34.5571 21.3353 34.4568 21.4969 34.4349C21.6483 34.414 21.6941 34.5498 21.7214 34.673C21.7822 34.9485 21.8504 35.2231 21.8942 35.5006C21.9205 35.6652 21.9915 35.6744 22.1269 35.635C22.2462 35.5994 22.364 35.6028 22.3129 35.4086C22.2452 35.1389 22.2106 34.858 22.1566 34.5561ZM24.4447 34.8108C24.8571 34.8857 24.9725 34.8555 25.1658 34.6423C25.3936 34.3916 25.3746 33.9412 25.1171 33.5615C24.8196 33.1175 24.342 33.0961 24.0158 33.5162C23.9672 33.579 23.9574 33.6287 23.8596 33.5601C23.7617 33.4914 23.6385 33.5601 23.5524 33.6331C23.4662 33.7061 23.5431 33.783 23.5728 33.8531C23.8041 34.4037 24.047 34.9495 24.2675 35.504C24.3571 35.7299 24.4822 35.596 24.5981 35.5697C24.7407 35.5376 24.7115 35.4524 24.6643 35.3507C24.5854 35.1832 24.5236 35.0099 24.4428 34.8093L24.4447 34.8108ZM20.2092 35.2104C20.2092 34.7202 19.8636 34.3648 19.3947 34.3697C18.9259 34.3745 18.5549 34.7358 18.5564 35.1973C18.5564 35.6841 18.9225 36.0673 19.384 36.0663C19.867 36.0644 20.2073 35.7124 20.2039 35.2104H20.2092ZM26.4447 32.321C26.1526 32.321 25.7432 32.583 25.6482 32.8342C25.6093 32.9379 25.5508 33.0878 25.6755 33.1326C25.8001 33.1774 25.971 33.1667 26.0065 32.9593C26.0294 32.8249 26.1243 32.7499 26.25 32.7159C26.3308 32.6954 26.415 32.6925 26.4666 32.7767C26.5182 32.8609 26.4583 32.913 26.4057 32.9646C26.2787 33.0898 26.1463 33.2081 26.0236 33.339C25.9704 33.392 25.9315 33.4576 25.9108 33.5297C25.89 33.6018 25.888 33.678 25.9049 33.7511C25.9218 33.8243 25.9571 33.8919 26.0074 33.9475C26.0578 34.0032 26.1215 34.0451 26.1925 34.0693C26.433 34.1594 26.6793 34.0552 26.897 33.7772C26.9315 33.7329 26.9408 33.6204 27.0255 33.6745C27.1954 33.7821 27.2665 33.598 27.3882 33.5683C27.4505 33.5532 27.4369 33.4958 27.3926 33.4554C27.1238 33.2042 27.0377 32.842 26.8415 32.546C26.7402 32.3965 26.6224 32.3113 26.4413 32.321H26.4447ZM13.9236 34.3999C14.0083 33.8088 13.3321 33.4413 12.872 33.6813C12.4762 33.8877 12.2815 34.5513 12.5088 34.9359C12.7206 35.2947 13.3107 35.411 13.6164 35.1549C13.6651 35.1136 13.7284 35.0771 13.6982 34.9992C13.6636 34.9115 13.3715 34.8375 13.2868 34.8911C13.114 34.9996 12.9514 34.9587 12.8691 34.7733C12.8379 34.7041 12.779 34.617 12.8365 34.5449C12.8939 34.4729 12.9855 34.5167 13.0614 34.5415C13.2537 34.6034 13.448 34.6618 13.6378 34.7304C13.8277 34.7991 13.9119 34.7202 13.9231 34.5357C13.9236 34.4777 13.9236 34.4198 13.9236 34.3999ZM9.45828 31.8814C9.30736 31.859 9.15109 31.8921 9.09461 32.0207C9.0508 32.118 9.1988 32.1794 9.28107 32.2393C9.3356 32.2792 9.38574 32.2548 9.44124 32.2393C9.56149 32.2018 9.66324 32.248 9.75623 32.3225C9.83461 32.3853 9.86674 32.4686 9.82536 32.5596C9.7796 32.6599 9.6871 32.6224 9.61261 32.5995C9.45001 32.5508 9.29227 32.4832 9.12577 32.4418C9.06113 32.4245 8.99341 32.422 8.92769 32.4346C8.86197 32.4473 8.79996 32.4746 8.74632 32.5146C8.69268 32.5546 8.6488 32.6062 8.61797 32.6656C8.58715 32.725 8.57018 32.7906 8.56834 32.8575C8.5513 33.1462 8.76064 33.3751 9.11263 33.4296C9.23434 33.4481 9.32684 33.4471 9.3838 33.5975C9.41057 33.6686 9.6243 33.8346 9.67055 33.7129C9.8166 33.3351 10.0902 33.0386 10.244 32.6725C10.2986 32.543 10.2961 32.4106 10.2105 32.303C10.0177 32.0611 9.78009 31.8882 9.45682 31.8814H9.45828ZM27.6175 31.7329C27.4744 31.5932 27.3643 31.6658 27.2611 31.7675C27.1433 31.8829 27.2611 31.9622 27.3157 32.0377C27.5318 32.3395 27.7616 32.6321 27.9768 32.9345C28.061 33.0528 28.1141 33.136 28.2757 33.0158C28.4218 32.9077 28.4451 32.8303 28.3322 32.6876C28.1746 32.4927 28.0283 32.2888 27.894 32.0771C27.7889 31.9072 27.8044 31.7251 27.9782 31.6044C28.152 31.4837 28.2772 31.6044 28.3799 31.7412C28.5293 31.9423 28.6803 32.1419 28.8278 32.3439C28.9028 32.4471 28.9738 32.5158 29.1004 32.4038C29.2017 32.3152 29.3098 32.2504 29.1866 32.0966C28.9948 31.8571 28.818 31.6054 28.6267 31.3663C28.3482 31.0173 28.025 31.1288 27.7884 31.3478C27.6891 31.4418 27.6618 31.5835 27.6185 31.7329H27.6175ZM16.5039 35.2216C16.5005 35.2865 16.5005 35.3515 16.5039 35.4164C16.5389 35.7616 16.793 36.0006 17.1889 36.0595C17.4702 36.1028 17.8013 35.9276 17.9157 35.6807C17.9644 35.5775 17.9878 35.5113 17.8329 35.4758C17.6781 35.4402 17.5895 35.4271 17.4873 35.5819C17.3685 35.7664 17.0759 35.728 16.9883 35.5259C16.9396 35.4182 16.9179 35.3004 16.9248 35.1824C16.9318 35.0645 16.9672 34.95 17.0282 34.8487C17.1387 34.6618 17.4143 34.654 17.515 34.8458C17.6328 35.0712 17.8305 34.9811 17.9167 34.9169C18.0462 34.8195 17.9065 34.6871 17.8247 34.5951C17.6299 34.3741 17.2799 34.3098 16.9722 34.4271C16.6499 34.5513 16.5039 34.7976 16.5039 35.2216ZM6.9009 30.2072C6.8712 30.2432 6.84151 30.2807 6.80986 30.3167C6.65018 30.4993 6.48027 30.6741 6.33227 30.8659C6.12974 31.1283 6.22565 31.4311 6.53188 31.5669C6.63216 31.6112 6.68523 31.5635 6.7383 31.4983C6.78211 31.4442 6.86682 31.3746 6.77724 31.3167C6.59906 31.2018 6.69107 31.0991 6.77724 31.0002C6.89847 30.8591 7.03186 30.7281 7.15844 30.5913C7.21686 30.5285 7.27772 30.5012 7.34101 30.5781C7.42815 30.6838 7.49777 30.6536 7.57664 30.565C7.64626 30.4871 7.67888 30.4141 7.58492 30.3386C7.4744 30.2495 7.51627 30.1784 7.59952 30.102C7.6594 30.0475 7.71344 29.9866 7.76943 29.9282C7.83856 29.8571 7.83174 29.8357 7.73145 29.7822C7.42961 29.622 7.21443 29.936 6.93693 29.9078C6.88824 29.9029 6.76605 30.0188 6.85806 30.1385C6.87266 30.159 6.88435 30.1804 6.90236 30.2081L6.9009 30.2072ZM15.2663 33.6229C15.2926 33.5255 15.1918 33.5153 15.1071 33.4963C14.9542 33.4622 14.8462 33.4924 14.8106 33.674C14.6948 34.266 14.5721 34.8565 14.447 35.4471C14.427 35.541 14.3895 35.6335 14.536 35.6301C14.649 35.6301 14.8121 35.7937 14.8637 35.5493C14.9981 34.9203 15.1285 34.2903 15.2678 33.6238L15.2663 33.6229Z" fill="#C3BADD"/>
<path d="M36.9479 19.2751C36.8992 19.7488 36.8632 20.2234 36.8018 20.6952C36.7015 21.4659 36.5876 22.2336 36.3588 22.9833C36.3101 23.1494 36.2751 23.329 36.2342 23.5023C36.1972 23.6605 36.1519 23.7555 35.9567 23.83C35.3681 24.0544 34.7834 24.2929 34.1948 24.5193C33.4159 24.8187 32.6369 25.125 31.8507 25.4049C31.5819 25.5023 31.2762 25.5285 31.0191 25.6288C30.6978 25.7549 30.359 25.7418 30.0401 25.865C29.7387 25.9818 29.396 25.9998 29.0664 26.0363C27.5908 26.2009 26.1585 26.03 24.8022 25.4088C23.9706 25.0281 23.3519 24.4268 22.9108 23.6036C22.1956 22.2682 21.757 20.8286 21.2029 19.4289C21.0019 18.9226 20.8086 18.4129 20.6148 17.9031C19.9027 16.0265 19.1913 14.1497 18.4805 12.2728C18.3739 11.9909 18.2692 11.7081 18.1529 11.4301C18.0988 11.3006 18.0954 11.2461 18.2556 11.1867C19.2044 10.8371 20.146 10.4686 21.091 10.1088C21.6839 9.8829 22.2813 9.67064 22.8694 9.4316C23.0213 9.37075 23.0641 9.41553 23.1128 9.54114C23.5763 10.778 24.0415 12.0148 24.5086 13.2514C24.8289 14.099 25.1546 14.9446 25.4769 15.7917C25.7827 16.5945 26.0899 17.3983 26.3902 18.2006C26.7374 19.129 27.084 20.055 27.6419 20.886C27.9402 21.324 28.3398 21.6834 28.8069 21.9337C29.2495 22.1805 29.7129 22.1284 30.1701 22.0963C30.9365 22.0362 31.6725 21.7708 32.301 21.3281C32.8672 20.9362 33.2304 20.367 33.4392 19.7122C33.7206 18.8315 33.6948 17.9275 33.5668 17.0288C33.3234 15.336 32.7698 13.7343 32.0746 12.1808C31.5644 11.0406 30.8916 9.99877 30.1019 9.03142C28.3882 6.93264 26.2486 5.42489 23.7243 4.46484C22.5388 4.01776 21.3003 3.72615 20.0399 3.59728C19.2596 3.50817 18.4733 3.48309 17.6889 3.52231C16.1242 3.60719 14.5823 3.9357 13.1189 4.496C11.1004 5.26931 9.27342 6.471 7.76396 8.01829C6.25449 9.56558 5.09837 11.4217 4.37523 13.4588C4.36216 13.5089 4.33726 13.5552 4.30261 13.5937C4.26797 13.6323 4.22459 13.6619 4.17611 13.6803C2.95463 14.1433 1.73509 14.6116 0.514575 15.0765C0.470759 15.0931 0.405035 15.1126 0.375825 15.0926C0.323246 15.0566 0.358298 14.9923 0.369496 14.9373C1.17805 10.8787 3.31632 7.2053 6.44626 4.49794C8.80306 2.46927 11.5065 1.14165 14.5312 0.457153C15.3325 0.2718 16.1476 0.152449 16.9684 0.100298C17.0302 0.0964034 17.1086 0.111495 17.0906 0.00292969H19.7195C19.7458 0.114903 19.8383 0.0900744 19.9143 0.0964034C20.1475 0.115877 20.3821 0.120745 20.6129 0.153364C21.616 0.287906 22.6084 0.493051 23.5826 0.767272C25.382 1.28906 27.0923 2.07969 28.6555 3.11239C29.3895 3.59258 30.0837 4.13097 30.7314 4.72238C31.1837 5.13717 31.6291 5.56072 32.0517 6.00082C32.5103 6.47793 32.911 7.01297 33.3122 7.54509C33.8905 8.31744 34.408 9.13357 34.8598 9.98611C35.4187 11.0314 35.8447 12.1326 36.1835 13.2684C36.5198 14.4103 36.748 15.5813 36.8651 16.7659C36.8963 17.0692 36.851 17.3803 36.9479 17.6768V19.2751ZM20.4172 1.72489C20.406 1.71369 20.3948 1.7025 20.3831 1.69178C20.3772 1.32519 20.46 0.968338 20.5009 0.607101C20.5179 0.458614 20.4858 0.394838 20.3315 0.40068C20.2666 0.398464 20.2022 0.38949 20.1392 0.373903C20.0418 0.357838 19.9868 0.382666 19.9737 0.492206C19.8763 1.28771 19.774 2.08272 19.6762 2.87773C19.645 3.12943 19.8568 3.02135 19.9629 3.0564C20.0691 3.09146 20.1927 3.11531 20.203 2.93031C20.2103 2.8013 20.2322 2.67277 20.2516 2.54522C20.2624 2.48894 20.2891 2.43692 20.3285 2.39533C20.368 2.35375 20.4185 2.32433 20.4741 2.31056C20.5822 2.28184 20.5715 2.42984 20.607 2.49751C20.6735 2.60891 20.7227 2.72971 20.7531 2.85582C20.8154 3.15182 21.0111 3.22728 21.2799 3.23361C21.4147 3.23702 21.44 3.21365 21.386 3.09C21.2594 2.80081 21.1528 2.50189 21.0145 2.21903C20.9133 2.01164 20.921 1.87143 21.1304 1.73803C21.3018 1.62947 21.4468 1.47855 21.6236 1.32909C21.2545 1.21565 20.9449 1.17086 20.6952 1.49753C20.6253 1.5976 20.5291 1.67631 20.4172 1.72489ZM17.2975 1.27651C17.0409 1.09735 16.8106 1.02919 16.5487 1.11634C16.1106 1.26239 15.9037 1.69373 15.9991 2.27453C16.1349 3.10217 16.7673 3.35386 17.4284 2.83392C17.4815 3.1343 17.7064 3.01405 17.8622 2.99263C18.0355 2.96828 17.9406 2.80957 17.9338 2.71172C17.8851 1.97659 17.8145 1.24243 17.776 0.506811C17.7624 0.250732 17.6115 0.332035 17.4796 0.330574C17.3301 0.330574 17.2064 0.336903 17.24 0.552574C17.2736 0.768245 17.277 1.00193 17.2975 1.27651ZM9.52846 5.59577C10.101 5.59869 10.581 5.15469 10.5912 4.61381C10.6019 4.04421 10.1151 3.52767 9.56886 3.52815C9.04989 3.52815 8.5499 4.00185 8.54114 4.50184C8.52994 5.06317 9.01143 5.59334 9.52846 5.59577ZM7.07818 7.56213C7.36444 7.72181 7.45451 7.45161 7.54311 7.31335C7.64048 7.16292 7.39122 7.2043 7.32793 7.11521C7.27389 7.03828 7.18188 6.99106 7.10885 6.92534C6.88831 6.7233 6.67069 6.51688 6.45113 6.31484C6.38387 6.24845 6.29654 6.20619 6.20274 6.19466C6.10895 6.18312 6.01398 6.20295 5.93264 6.25106C5.62447 6.41464 5.38592 6.65319 5.26226 6.98717C5.20238 7.1488 5.24376 7.30702 5.31094 7.45843C5.3275 7.49446 5.34113 7.5334 5.39273 7.53292C5.50081 7.53292 5.71551 7.2671 5.7048 7.14782C5.68971 6.98181 5.84404 6.76468 6.00372 6.72525C6.03921 6.71624 6.07641 6.71647 6.11178 6.72593C6.14715 6.73539 6.17951 6.75376 6.20576 6.77928C6.28414 6.84744 6.23205 6.91219 6.19797 6.97402C6.08746 7.17168 5.96039 7.3635 5.864 7.56505C5.73644 7.83525 5.80655 8.09376 6.0266 8.25734C6.24665 8.42092 6.53778 8.41215 6.76271 8.21888C6.95793 8.0514 7.06114 7.83817 7.07818 7.56213ZM22.5792 2.39527C22.1922 2.38846 21.9317 2.59001 21.9118 2.942C21.8938 3.26136 22.1479 3.51647 22.5305 3.56807C22.6599 3.57974 22.7902 3.56432 22.9132 3.5228C22.9663 3.50819 23.0179 3.47411 23.0422 3.56515C23.1031 3.79543 23.3285 3.77401 23.4765 3.77644C23.6055 3.77888 23.5125 3.59144 23.5417 3.49213C23.5821 3.3524 23.6065 3.2083 23.6449 3.0676C23.7024 2.8568 23.773 2.6494 23.8246 2.43763C23.863 2.27892 23.8733 2.11582 23.77 1.96977C23.5607 1.67523 22.845 1.49851 22.5237 1.6616C22.4306 1.71193 22.3511 1.7841 22.292 1.87192C22.2681 1.90551 22.2487 1.93423 22.2793 1.97853C22.3519 2.08175 22.644 2.15234 22.7506 2.0759C22.9215 1.95419 23.0748 2.02089 23.2258 2.10706C23.2648 2.12921 23.295 2.16419 23.3113 2.20607C23.3275 2.24795 23.3288 2.29415 23.3148 2.33685C23.2881 2.45126 23.1961 2.42984 23.1201 2.42692C22.9497 2.42205 22.7803 2.40842 22.5792 2.39527ZM30.7815 6.74229C31.0001 6.72963 31.1165 6.86984 31.2012 7.04315C31.2411 7.12494 31.1954 7.19894 31.1379 7.26272C31.0644 7.34353 31.0079 7.27538 30.9471 7.24325C30.7324 7.12932 30.5542 6.9565 30.3273 6.86107C30.1224 6.77539 29.9305 6.7861 29.7572 6.92875C29.6716 6.99213 29.6065 7.0794 29.5702 7.1796C29.5339 7.2798 29.528 7.38848 29.5532 7.49202C29.6185 7.80311 29.821 7.97059 30.1165 8.05627C30.1745 8.07331 30.3166 8.03582 30.284 8.15802C30.2202 8.39755 30.4189 8.50173 30.5376 8.58985C30.6564 8.67797 30.6482 8.4365 30.7426 8.38538C30.7494 8.38148 30.7587 8.37953 30.763 8.37369C30.9773 8.08646 31.266 7.87371 31.5138 7.62006C31.6954 7.43457 31.7805 7.22767 31.6627 6.98327C31.5931 6.83713 31.5052 6.70038 31.4013 6.57627C31.1842 6.32117 30.8069 6.21406 30.5474 6.31678C30.4987 6.33626 30.431 6.33869 30.431 6.41756C30.4335 6.52759 30.673 6.75446 30.7815 6.74229ZM27.6984 4.07147C27.6921 3.6966 27.4886 3.44296 27.157 3.28668C26.8118 3.12359 26.4886 3.18931 26.2111 3.43955C25.9765 3.64471 25.8231 3.92708 25.7788 4.23553C25.7272 4.58314 25.8698 4.84993 26.1497 5.04905C26.4545 5.26521 26.7763 5.34992 27.1234 5.15469C27.1721 5.12646 27.2539 5.10601 27.2451 5.02519C27.2334 4.91468 26.8854 4.71751 26.787 4.77106C26.7286 4.80862 26.6592 4.82527 26.5902 4.81829C26.5211 4.8113 26.4565 4.78109 26.4068 4.7326C26.3532 4.68879 26.3126 4.63116 26.2894 4.56594C26.2663 4.50072 26.2614 4.4304 26.2753 4.3626C26.2977 4.2219 26.3386 4.15277 26.4925 4.25501C26.6672 4.37136 26.8557 4.46679 27.0377 4.57146C27.4885 4.83094 27.5879 4.78177 27.6818 4.25111C27.693 4.19464 27.693 4.13817 27.6984 4.07147ZM13.8565 1.86851C13.7854 1.50532 13.5644 1.72246 13.4212 1.73706C13.2421 1.75605 13.3492 1.90307 13.3672 1.98778C13.4724 2.47901 13.6004 2.96536 13.6949 3.45805C13.7435 3.71121 13.8867 3.62357 14.0308 3.59972C14.1861 3.5744 14.2791 3.53448 14.2255 3.33488C14.1368 3.00629 14.0659 2.67312 14.0132 2.33685C14.0042 2.28628 14.0057 2.23438 14.0175 2.1844C14.0294 2.13442 14.0514 2.08741 14.0823 2.04631C14.1131 2.00521 14.1521 1.9709 14.1967 1.9455C14.2414 1.9201 14.2908 1.90417 14.3419 1.89869C14.558 1.87192 14.6471 2.01067 14.6924 2.1908C14.763 2.47365 14.8302 2.75748 14.8983 3.04082C15.0001 3.46292 14.929 3.36896 15.3365 3.2969C15.4514 3.27646 15.4879 3.22728 15.4606 3.11531C15.3579 2.69809 15.2708 2.27746 15.1544 1.86413C15.0643 1.54573 14.8316 1.41769 14.5025 1.44788C14.2236 1.47611 14.0283 1.6319 13.8565 1.86851ZM12.542 3.85044C12.6394 4.18344 12.801 3.9814 12.9422 3.94051C13.1301 3.88598 13.0396 3.77206 12.9953 3.67469C12.7835 3.20148 12.5654 2.73119 12.3565 2.25652C12.2411 1.99411 12.1034 2.20784 11.9812 2.23705C11.859 2.26626 11.7923 2.32614 11.8677 2.48047C12.0182 2.78475 12.154 3.0973 12.2806 3.41326C12.3726 3.64402 12.2806 3.85969 12.0771 3.93661C11.8463 4.02376 11.7295 3.88793 11.6438 3.70293C11.4977 3.38648 11.3483 3.07003 11.21 2.75213C11.1642 2.64551 11.1185 2.61143 11.0153 2.67423C10.9374 2.71836 10.856 2.75598 10.7719 2.78669C10.6935 2.81688 10.672 2.86167 10.7095 2.93615C10.9164 3.34851 11.064 3.78959 11.3035 4.18588C11.431 4.39668 11.6263 4.47311 11.8638 4.44342C12.1949 4.39911 12.393 4.18685 12.541 3.85044H12.542ZM27.9024 6.14396C27.9997 6.13957 28.0255 6.07239 28.0616 6.02176C28.5031 5.40396 28.933 4.77106 29.3897 4.16348C29.5737 3.92006 29.3483 3.89718 29.246 3.79494C29.1141 3.6635 29.0406 3.72289 28.95 3.85336C28.5304 4.459 28.1005 5.05781 27.6774 5.6615C27.6288 5.72917 27.5105 5.80219 27.5752 5.88203C27.6643 5.99206 27.8006 6.0646 27.9024 6.14396ZM7.35325 5.16053C7.11615 4.98478 7.00856 5.2063 6.89172 5.3134C6.77488 5.42051 6.94478 5.49061 6.99785 5.56121C7.2958 5.95506 7.61517 6.33285 7.90532 6.73206C8.03628 6.91268 8.11954 6.82943 8.22761 6.73206C8.32498 6.64346 8.50365 6.59867 8.3318 6.40442C8.11003 6.158 7.91274 5.8906 7.74272 5.606C7.64973 5.44777 7.60056 5.2394 7.79919 5.16443C8.08107 5.0583 7.95936 4.90835 7.91165 4.74428C7.87271 4.6104 7.79676 4.61332 7.69014 4.65811C7.47057 4.74915 7.35325 4.90689 7.35325 5.16053ZM25.9321 2.73752C25.9089 2.70102 25.8825 2.66665 25.8532 2.6348C25.7072 2.51357 25.5514 2.43422 25.3615 2.50335C25.2715 2.53548 25.2315 2.58076 25.196 2.42643C25.1639 2.28476 24.9584 2.29109 24.8275 2.24046C24.7593 2.21417 24.7442 2.29547 24.7238 2.34707C24.5222 2.85875 24.3192 3.36944 24.1191 3.88257C24.1026 3.92444 24.051 3.97994 24.0957 4.01548C24.2116 4.10271 24.3469 4.16036 24.4901 4.18344C24.6123 4.20681 24.6074 4.06904 24.6391 3.99796C24.7725 3.69465 24.8577 3.36993 25.0412 3.09C25.1673 2.89818 25.3148 2.86751 25.4949 2.97705C25.5436 3.00675 25.5767 3.1119 25.6493 3.04715C25.7494 2.94944 25.8438 2.84606 25.9321 2.73752ZM28.8634 6.92436C28.9398 6.92826 28.9642 6.88298 28.9953 6.84744C29.3488 6.43996 29.6949 6.02565 30.0591 5.6279C30.2095 5.46384 30.0893 5.37961 29.9924 5.29782C29.8955 5.21603 29.7894 5.10601 29.6433 5.28857C29.3308 5.68048 28.9885 6.04854 28.6643 6.43119C28.6156 6.49059 28.4827 6.54511 28.5547 6.64102C28.6404 6.753 28.766 6.83625 28.8634 6.9229V6.92436ZM30.2752 4.60894C30.2373 4.60894 29.9802 4.89034 29.9773 4.93805C29.9729 5.00475 30.2694 5.28517 30.3317 5.2579C30.4685 5.19997 30.542 5.06852 30.6238 4.95071C30.6452 4.91711 30.3322 4.6104 30.2757 4.60748L30.2752 4.60894Z" fill="#04A694"/>
<path d="M22.1552 34.5561C22.2092 34.857 22.2438 35.1403 22.3149 35.411C22.366 35.6057 22.2482 35.6018 22.1289 35.6374C21.9945 35.6768 21.9225 35.6676 21.8962 35.503C21.8524 35.2245 21.7842 34.95 21.7234 34.6754C21.6961 34.5522 21.6503 34.4164 21.4989 34.4373C21.3373 34.4602 21.2185 34.5595 21.2234 34.7513C21.2297 35.0288 21.3081 35.2927 21.3694 35.56C21.4006 35.7007 21.4133 35.7946 21.2234 35.8316C21.0335 35.8686 20.9663 35.8263 20.9357 35.6398C20.8743 35.2664 20.7935 34.8959 20.721 34.5235C20.7049 34.4412 20.6401 34.319 20.7507 34.2937C20.848 34.2708 20.9775 34.1476 21.0734 34.2937C21.1192 34.3633 21.1426 34.3361 21.1786 34.3015C21.4128 34.0785 21.662 33.9792 21.9575 34.1905C22.0491 34.2552 22.0885 34.1623 22.1318 34.1136C22.2896 33.9378 22.477 33.8434 22.716 33.9047C22.9629 33.9685 23.049 34.1613 23.0914 34.3916C23.1445 34.6764 23.1966 34.9631 23.2725 35.2426C23.3334 35.468 23.1703 35.4183 23.0593 35.4568C22.9132 35.5055 22.8563 35.4646 22.8319 35.3107C22.7881 35.0318 22.7263 34.7562 22.6698 34.4797C22.6406 34.3375 22.5724 34.2363 22.405 34.2664C22.2219 34.2952 22.1766 34.4271 22.1552 34.5561Z" fill="#FBFBFA"/>
<path d="M24.4434 34.8093C24.5243 35.0084 24.5895 35.1817 24.6654 35.3492C24.7141 35.451 24.7419 35.5362 24.5992 35.5683C24.4834 35.5946 24.3582 35.7285 24.2687 35.5026C24.0481 34.9481 23.8052 34.4023 23.5739 33.8517C23.5442 33.7816 23.4712 33.7027 23.5535 33.6316C23.6358 33.5606 23.757 33.4856 23.8607 33.5586C23.9644 33.6316 23.9683 33.5776 24.017 33.5148C24.3432 33.0946 24.8207 33.1161 25.1182 33.5601C25.3733 33.9398 25.3923 34.3877 25.1669 34.6409C24.9712 34.858 24.8558 34.8857 24.4434 34.8093ZM24.5919 34.5659C24.7672 34.5547 24.8631 34.4476 24.9001 34.2986C24.9512 34.0956 24.7662 33.7368 24.5822 33.6355C24.4264 33.5498 24.3008 33.6029 24.1927 33.7183C24.0267 33.8965 24.1139 34.0829 24.2005 34.2538C24.2818 34.4154 24.3884 34.5591 24.5919 34.5659Z" fill="#FBFBFA"/>
<path d="M30.0428 30.8079C29.977 30.5295 29.8149 30.2914 29.7137 30.029C29.6484 29.8586 29.7297 29.6439 29.8962 29.5811C29.9824 29.5485 29.9936 29.6161 30.014 29.6624C30.2575 30.2782 30.5087 30.8926 30.7409 31.5124C30.8188 31.7203 30.609 32.0572 30.3952 32.1453C30.2867 32.191 30.2492 32.1112 30.1917 32.0635C30.1124 31.9987 30.1499 31.9491 30.2015 31.8824C30.4074 31.6161 30.3709 31.471 30.0647 31.3142C29.7039 31.1302 29.3388 30.954 28.9805 30.7646C28.9109 30.7276 28.7307 30.7081 28.8149 30.5962C28.8992 30.4842 28.9941 30.2914 29.2044 30.4063C29.4386 30.5348 29.6703 30.6677 29.905 30.7958C29.9427 30.81 29.9822 30.8192 30.0223 30.823C30.034 30.8415 30.0452 30.86 30.0564 30.8785C30.0944 30.8474 30.0642 30.8284 30.0428 30.8079Z" fill="#FBFBFA"/>
<path d="M20.2021 35.2105C20.2021 35.7124 19.8613 36.0644 19.3745 36.0654C18.9144 36.0654 18.5498 35.6827 18.5469 35.1964C18.5469 34.7358 18.911 34.3751 19.3852 34.3687C19.8594 34.3624 20.2021 34.7202 20.2021 35.2105ZM19.764 35.2207C19.764 34.9413 19.5887 34.712 19.3818 34.7188C19.1608 34.7256 18.9899 34.9296 18.987 35.1891C18.9841 35.4997 19.136 35.6852 19.3935 35.6856C19.633 35.6856 19.7664 35.5187 19.764 35.2207Z" fill="#FBFBFA"/>
<path d="M26.4432 32.3211C26.6244 32.3113 26.7422 32.3965 26.8415 32.5465C27.0362 32.8425 27.1239 33.2047 27.3926 33.4559C27.4359 33.4963 27.4505 33.5533 27.3882 33.5688C27.2665 33.5985 27.1935 33.7826 27.0255 33.675C26.9408 33.6209 26.9316 33.7334 26.897 33.7777C26.6803 34.0562 26.433 34.1604 26.1925 34.0698C26.1215 34.0456 26.0578 34.0037 26.0075 33.948C25.9571 33.8924 25.9218 33.8248 25.9049 33.7517C25.888 33.6785 25.89 33.6023 25.9108 33.5302C25.9316 33.4581 25.9704 33.3925 26.0236 33.3395C26.1463 33.2105 26.2787 33.0903 26.4058 32.9652C26.4583 32.9136 26.5168 32.86 26.4666 32.7772C26.4165 32.6945 26.3308 32.6959 26.25 32.7164C26.1229 32.7485 26.028 32.8235 26.0066 32.9598C25.971 33.1672 25.7962 33.1755 25.6755 33.1331C25.5548 33.0908 25.6093 32.9384 25.6482 32.8347C25.7417 32.583 26.1536 32.3206 26.4432 32.3211ZM26.784 33.3921C26.7602 33.3035 26.7816 33.1769 26.638 33.1579C26.562 33.1477 26.2884 33.4501 26.2923 33.5343C26.2977 33.6589 26.3722 33.7358 26.4924 33.729C26.6833 33.712 26.768 33.5839 26.7821 33.3921H26.784Z" fill="#FBFBFA"/>
<path d="M13.925 34.3999C13.925 34.4213 13.928 34.4778 13.925 34.5343C13.9138 34.7202 13.8335 34.801 13.6397 34.729C13.446 34.6569 13.2556 34.6019 13.0633 34.5401C12.9874 34.5153 12.8983 34.468 12.8384 34.5435C12.7785 34.619 12.8384 34.7027 12.871 34.7718C12.9533 34.9573 13.1144 34.9982 13.2887 34.8896C13.3734 34.8361 13.6656 34.9101 13.7001 34.9977C13.7303 35.0756 13.6675 35.1121 13.6183 35.1535C13.3126 35.4096 12.7225 35.2932 12.5108 34.9344C12.2834 34.5498 12.4781 33.8863 12.8739 33.6798C13.3321 33.4413 14.0083 33.8089 13.925 34.3999ZM13.5434 34.249C13.5438 34.2087 13.5389 34.1686 13.5287 34.1297C13.5057 34.0686 13.462 34.0175 13.4051 33.9853C13.3482 33.9532 13.2819 33.9421 13.2177 33.9539C13.1023 33.9676 12.9845 34.0513 12.9742 34.1608C12.9611 34.302 13.1281 34.2641 13.2113 34.3127C13.2631 34.3345 13.3163 34.3525 13.3705 34.3668C13.4908 34.4198 13.5575 34.396 13.5419 34.249H13.5434Z" fill="#FBFBFA"/>
<path d="M9.45635 31.8812C9.77961 31.8886 10.0172 32.0609 10.2095 32.3029C10.2952 32.4104 10.2976 32.5429 10.2431 32.6724C10.0892 33.0385 9.81418 33.335 9.66958 33.7127C9.62333 33.8345 9.40961 33.6684 9.38283 33.5974C9.32587 33.4469 9.23337 33.4479 9.11166 33.4294C8.75967 33.3749 8.55033 33.1461 8.56737 32.8574C8.56889 32.7902 8.58566 32.7243 8.61642 32.6645C8.64718 32.6048 8.69112 32.5529 8.74492 32.5126C8.79871 32.4724 8.86096 32.4449 8.92694 32.4322C8.99293 32.4196 9.06092 32.4221 9.12578 32.4397C9.29033 32.481 9.44807 32.5482 9.61262 32.5974C9.68711 32.6203 9.77961 32.6578 9.82537 32.5575C9.86675 32.4674 9.83462 32.3832 9.75624 32.3204C9.66325 32.2459 9.5615 32.1996 9.44125 32.2371C9.38575 32.2547 9.33561 32.279 9.28108 32.2371C9.19881 32.1772 9.05081 32.1179 9.09462 32.0185C9.14915 31.892 9.30543 31.8589 9.45635 31.8812ZM9.22948 32.7605C9.08342 32.7551 8.9695 32.8019 8.97583 32.9382C8.98314 33.1052 9.10728 33.185 9.26794 33.1948C9.38527 33.2016 9.65741 32.981 9.61116 32.9192C9.51964 32.7936 9.35314 32.7931 9.22948 32.7605Z" fill="#FBFBFA"/>
<path d="M27.6201 31.7329C27.6634 31.5834 27.6907 31.4408 27.7924 31.3473C28.029 31.1282 28.3523 31.0167 28.6308 31.3658C28.8221 31.6053 28.9988 31.857 29.1907 32.0961C29.3138 32.2499 29.2057 32.3147 29.1045 32.4033C28.9769 32.5152 28.9068 32.4466 28.8318 32.3434C28.6858 32.1413 28.5334 31.9417 28.384 31.7407C28.2812 31.6024 28.162 31.4787 27.9823 31.6039C27.8027 31.729 27.7929 31.9067 27.8981 32.0766C28.0324 32.2883 28.1787 32.4921 28.3362 32.6871C28.4492 32.8297 28.4253 32.9071 28.2798 33.0152C28.1181 33.1355 28.0651 33.0522 27.9808 32.9339C27.7657 32.6316 27.5359 32.339 27.3197 32.0372C27.2662 31.9617 27.1474 31.8823 27.2652 31.767C27.3669 31.6657 27.477 31.5932 27.6201 31.7329Z" fill="#FBFBFA"/>
<path d="M16.5026 35.2216C16.5026 34.7976 16.6486 34.5513 16.9709 34.4271C17.2786 34.3098 17.6281 34.374 17.8234 34.5951C17.9051 34.6871 18.0449 34.82 17.9154 34.9169C17.8292 34.9811 17.6315 35.0712 17.5137 34.8458C17.4139 34.6545 17.1384 34.6618 17.0269 34.8487C16.9659 34.9499 16.9305 35.0644 16.9235 35.1824C16.9166 35.3003 16.9383 35.4182 16.987 35.5259C17.0746 35.7289 17.3672 35.7664 17.486 35.5819C17.5868 35.4256 17.6841 35.4427 17.8316 35.4758C17.9791 35.5089 17.9621 35.5775 17.9144 35.6807C17.8 35.9276 17.4689 36.1028 17.1875 36.0595C16.7917 35.9991 16.5376 35.7615 16.5026 35.4164C16.4991 35.3515 16.4991 35.2865 16.5026 35.2216Z" fill="#FBFBFA"/>
<path d="M11.2012 33.8842C11.4144 33.6894 11.6311 33.4947 11.8394 33.2926C11.9621 33.1729 12.077 33.1953 12.2114 33.2678C12.3282 33.3316 12.3487 33.3851 12.2421 33.4815C11.9013 33.7892 11.5605 34.1013 11.2241 34.4133C11.1642 34.4688 11.1106 34.5385 11.0186 34.4723C10.9266 34.406 10.7572 34.4148 10.766 34.2512C10.7927 33.7527 10.8297 33.2542 10.8633 32.7561C10.8682 32.6821 10.912 32.6505 10.9782 32.6821C11.1243 32.7547 11.3132 32.7717 11.2586 33.0385C11.2041 33.3053 11.2148 33.5993 11.1968 33.8807L11.1778 33.9031L11.2012 33.8842Z" fill="#FBFBFA"/>
<path d="M6.90395 30.2081C6.88594 30.1803 6.87426 30.1594 6.85916 30.1399C6.76715 30.0202 6.88935 29.9043 6.93803 29.9092C7.21553 29.9374 7.43072 29.6234 7.73256 29.7835C7.83285 29.8366 7.83966 29.858 7.77053 29.9296C7.71454 29.988 7.6605 30.0489 7.60062 30.1034C7.51737 30.1798 7.4755 30.2495 7.58602 30.34C7.67998 30.4155 7.64736 30.4861 7.57774 30.5664C7.49887 30.655 7.42925 30.6852 7.34211 30.5795C7.27882 30.5026 7.21797 30.5309 7.15954 30.5927C7.03297 30.7295 6.89957 30.8604 6.77835 31.0016C6.69412 31.099 6.60211 31.2032 6.77835 31.3181C6.86793 31.376 6.78322 31.4456 6.7394 31.4997C6.68633 31.5649 6.63327 31.6126 6.53298 31.5683C6.22676 31.4325 6.13085 31.1302 6.33337 30.8673C6.47943 30.6754 6.65128 30.5007 6.81097 30.3181C6.84456 30.2816 6.87425 30.2441 6.90395 30.2081Z" fill="#FBFBFA"/>
<path d="M15.2684 33.6237C15.1292 34.2902 14.9987 34.9202 14.8658 35.5501C14.8142 35.7936 14.6511 35.6285 14.5381 35.6309C14.3921 35.6344 14.4291 35.5419 14.449 35.4479C14.5742 34.8574 14.6968 34.2668 14.8127 33.6748C14.8483 33.4932 14.9563 33.463 15.1092 33.4971C15.1939 33.5161 15.2947 33.5258 15.2684 33.6237Z" fill="#FBFBFA"/>
<path d="M8.37999 31.1579C8.51679 31.1579 8.66236 31.1316 8.75729 31.265C8.80939 31.338 8.97832 31.3906 8.84931 31.5084C8.76265 31.5883 8.65165 31.7261 8.5056 31.5532C8.38535 31.4111 8.25536 31.4486 8.12829 31.5635C7.91603 31.7548 7.75586 31.989 7.58985 32.2168C7.46424 32.3896 7.39024 32.2528 7.29774 32.1929C7.20524 32.1331 7.14 32.0844 7.24614 31.9544C7.51147 31.6297 7.75391 31.2864 8.00804 30.952C8.05089 30.8955 8.08594 30.7641 8.17941 30.857C8.25828 30.9354 8.48223 30.9427 8.37123 31.1492L8.35224 31.175L8.37999 31.1579Z" fill="#FBFBFA"/>
<path d="M17.2946 1.27656C17.2742 1.00198 17.2718 0.774625 17.2372 0.552625C17.2026 0.330625 17.3273 0.329165 17.4767 0.330625C17.6086 0.330625 17.7596 0.250783 17.7732 0.506862C17.8117 1.24248 17.8808 1.97664 17.9309 2.71177C17.9378 2.80914 18.0327 2.96834 17.8594 2.99268C17.7036 3.0141 17.4787 3.13435 17.4256 2.83397C16.7645 3.35391 16.1321 3.09978 15.9962 2.27459C15.8989 1.69378 16.1072 1.26293 16.5459 1.11639C16.8068 1.02924 17.0386 1.0974 17.2946 1.27656ZM17.3633 2.15288C17.3472 1.99611 17.3496 1.83205 17.262 1.68843C17.1812 1.55503 17.0673 1.47519 16.9056 1.48201C16.8321 1.48115 16.7601 1.50364 16.7001 1.54624C16.6401 1.58883 16.5951 1.64935 16.5717 1.7191C16.4743 1.99709 16.486 2.27897 16.654 2.5292C16.8068 2.75753 17.1028 2.74634 17.2625 2.52336C17.3428 2.4109 17.354 2.28384 17.3633 2.15141V2.15288Z" fill="#F1F9F8"/>
<path d="M20.4169 1.72482C20.5293 1.67674 20.626 1.59836 20.6964 1.49844C20.9461 1.17177 21.2558 1.21656 21.6248 1.32999C21.4481 1.47945 21.303 1.63037 21.1316 1.73894C20.9223 1.87233 20.9145 2.01254 21.0158 2.21994C21.154 2.50279 21.2592 2.80171 21.3872 3.0909C21.4413 3.21456 21.4159 3.23695 21.2811 3.23452C21.0123 3.22819 20.8166 3.15273 20.7543 2.85673C20.724 2.73062 20.6747 2.60982 20.6083 2.49841C20.5703 2.43074 20.5834 2.28274 20.4754 2.31146C20.42 2.32548 20.3698 2.355 20.3306 2.39657C20.2915 2.43814 20.265 2.49002 20.2543 2.54612C20.2344 2.67367 20.2125 2.8022 20.2056 2.93121C20.1954 3.11621 20.0723 3.09285 19.9656 3.05731C19.859 3.02177 19.6477 3.13033 19.6789 2.87864C19.7763 2.08265 19.879 1.28764 19.9763 0.493109C19.9895 0.38357 20.046 0.358741 20.1419 0.374806C20.2049 0.390393 20.2693 0.399367 20.3342 0.401583C20.4885 0.395741 20.5206 0.459517 20.5036 0.608004C20.4627 0.969241 20.3799 1.3261 20.3858 1.69269C20.3819 1.7107 20.3775 1.72871 20.3731 1.74673L20.4169 1.72482Z" fill="#F1F9F8"/>
<path d="M9.52751 5.5957C9.01048 5.5957 8.529 5.06017 8.53922 4.50225C8.54799 4.00177 9.04797 3.52856 9.56695 3.52856C10.1142 3.52856 10.601 4.04462 10.5893 4.61422C10.5801 5.15462 10.1 5.59862 9.52751 5.5957ZM9.05625 4.4375C9.05625 4.76904 9.35858 5.11908 9.65166 5.11908C9.70827 5.11927 9.76437 5.10828 9.81673 5.08673C9.86908 5.06518 9.91667 5.0335 9.95675 4.99351C9.99683 4.95352 10.0286 4.90601 10.0503 4.85371C10.0719 4.8014 10.0831 4.74533 10.083 4.68871C10.083 4.36545 9.77191 4.00713 9.48418 3.99934C9.36939 4.00088 9.25989 4.04786 9.17968 4.12999C9.09946 4.21212 9.05508 4.3227 9.05625 4.4375Z" fill="#F1F9F8"/>
<path d="M7.07484 7.56208C7.05537 7.83666 6.95459 8.04892 6.76083 8.21785C6.53591 8.41259 6.25013 8.42476 6.02472 8.25631C5.79931 8.08787 5.73262 7.83422 5.86212 7.56402C5.95948 7.36004 6.08558 7.17066 6.19609 6.973C6.23017 6.91214 6.28226 6.84739 6.20388 6.77826C6.17763 6.75274 6.14527 6.73437 6.1099 6.72491C6.07453 6.71545 6.03733 6.71521 6.00184 6.72422C5.84216 6.76366 5.68783 6.98079 5.70292 7.1468C5.71363 7.26608 5.49893 7.53092 5.39085 7.53189C5.33925 7.53189 5.32562 7.49343 5.30906 7.45741C5.24042 7.306 5.19904 7.14777 5.26038 6.98614C5.38404 6.65217 5.62259 6.41362 5.93076 6.25004C6.0121 6.20193 6.10707 6.18209 6.20087 6.19363C6.29466 6.20517 6.38199 6.24743 6.44925 6.31381C6.66979 6.51585 6.88741 6.72227 7.10697 6.92431C7.17854 6.99004 7.27201 7.03726 7.32605 7.11418C7.38934 7.20327 7.63763 7.16287 7.54123 7.31233C7.45117 7.45156 7.3611 7.72176 7.07484 7.56208ZM6.78566 7.53968C6.79004 7.32645 6.68196 7.23541 6.5841 7.13901C6.57811 7.13079 6.57006 7.12429 6.56075 7.12017C6.55145 7.11605 6.54122 7.11445 6.53111 7.11554C6.52099 7.11662 6.51134 7.12035 6.50312 7.12636C6.49491 7.13236 6.48841 7.14042 6.4843 7.14972C6.39472 7.29334 6.28664 7.43014 6.24623 7.59713C6.20583 7.76412 6.38401 7.90968 6.55197 7.84445C6.61593 7.82121 6.6719 7.78018 6.71331 7.72618C6.75471 7.67218 6.77981 7.60747 6.78566 7.53968Z" fill="#F1F9F8"/>
<path d="M22.5764 2.39524C22.7774 2.40839 22.9469 2.42202 23.1168 2.42883C23.1932 2.43176 23.2852 2.45318 23.3115 2.33877C23.3257 2.29576 23.3245 2.24915 23.3081 2.20694C23.2916 2.16473 23.261 2.12957 23.2214 2.10752C23.0705 2.02135 22.9172 1.95465 22.7463 2.07636C22.6397 2.15231 22.3476 2.08172 22.275 1.97899C22.2444 1.93469 22.2638 1.90597 22.2877 1.87237C22.3468 1.78456 22.4263 1.71239 22.5194 1.66206C22.8393 1.49897 23.5564 1.67569 23.7657 1.97023C23.8694 2.11628 23.8587 2.27937 23.8203 2.43808C23.7687 2.64986 23.6981 2.85726 23.6406 3.06806C23.6022 3.20876 23.5778 3.35286 23.5374 3.49258C23.5082 3.58995 23.6012 3.77933 23.4722 3.7769C23.3261 3.7769 23.0988 3.79589 23.0379 3.56561C23.0136 3.47408 22.962 3.50865 22.9089 3.52326C22.7859 3.56477 22.6555 3.58019 22.5262 3.56853C22.145 3.51644 21.8909 3.26182 21.907 2.94197C21.9289 2.59193 22.1893 2.38843 22.5764 2.39524ZM22.7735 3.23651C22.977 3.23212 23.1932 3.0369 23.163 2.84703C23.1328 2.65716 22.9478 2.79835 22.8446 2.74966C22.8128 2.74165 22.7797 2.74016 22.7473 2.74528C22.5837 2.74528 22.4367 2.79397 22.4474 2.98043C22.4586 3.15812 22.5978 3.23456 22.7735 3.23651Z" fill="#F1F9F8"/>
<path d="M30.7811 6.74225C30.6711 6.75442 30.433 6.52756 30.4325 6.41753C30.4325 6.33866 30.4997 6.33623 30.5489 6.31675C30.8084 6.21403 31.1857 6.32113 31.4028 6.57624C31.5067 6.70035 31.5946 6.8371 31.6642 6.98324C31.782 7.22666 31.6968 7.43454 31.5152 7.62003C31.2674 7.87367 30.9797 8.08642 30.7645 8.37366C30.7602 8.3795 30.7509 8.38145 30.7441 8.38535C30.6496 8.43403 30.6521 8.67307 30.5391 8.58982C30.4262 8.50657 30.2217 8.39752 30.2855 8.15799C30.3181 8.03579 30.1759 8.07328 30.118 8.05624C29.8225 7.97056 29.62 7.80308 29.5547 7.49199C29.5293 7.38864 29.5349 7.28008 29.5709 7.1799C29.6068 7.07971 29.6715 6.99235 29.7568 6.92871C29.9301 6.78607 30.1219 6.77536 30.3269 6.86104C30.5537 6.95841 30.7319 7.12929 30.9466 7.24321C31.0075 7.27534 31.0639 7.3435 31.1375 7.26269C31.1949 7.19891 31.2407 7.12491 31.2007 7.04312C31.116 6.86981 30.9997 6.7296 30.7811 6.74225ZM30.8132 7.56161C30.6954 7.48274 30.5849 7.40387 30.469 7.33377C30.3717 7.27486 30.2689 7.21157 30.1536 7.288C30.1117 7.3139 30.0794 7.35265 30.0614 7.39846C30.0434 7.44427 30.0407 7.49468 30.0537 7.54213C30.0679 7.60161 30.0985 7.65592 30.1419 7.69894C30.1854 7.74196 30.24 7.77196 30.2996 7.78556C30.5089 7.84787 30.6584 7.74856 30.8132 7.56161Z" fill="#F1F9F8"/>
<path d="M27.6981 4.07146C27.6928 4.13767 27.6928 4.19463 27.683 4.25013C27.5891 4.78079 27.4883 4.82996 27.0389 4.57048C26.8568 4.4658 26.6684 4.37038 26.4937 4.25403C26.3398 4.15179 26.2989 4.22092 26.2765 4.36162C26.2626 4.42942 26.2675 4.49974 26.2906 4.56496C26.3138 4.63018 26.3544 4.68781 26.408 4.73162C26.4577 4.78011 26.5223 4.81032 26.5914 4.81731C26.6604 4.82429 26.7298 4.80764 26.7882 4.77008C26.8856 4.71653 27.2346 4.91613 27.2463 5.02421C27.2551 5.106 27.1752 5.12548 27.1246 5.15371C26.776 5.34845 26.4542 5.26423 26.1509 5.04807C25.871 4.84895 25.7283 4.58216 25.78 4.23455C25.8246 3.92645 25.9779 3.64446 26.2123 3.43954C26.4898 3.19174 26.813 3.12358 27.1582 3.28667C27.4883 3.44295 27.6918 3.69659 27.6981 4.07146ZM26.8822 3.65375C26.7405 3.6484 26.6129 3.70633 26.5662 3.83096C26.5112 3.97702 26.6811 3.9702 26.7541 4.0257C26.8437 4.09191 26.9489 4.13524 27.0462 4.19561C27.1436 4.25598 27.1864 4.23261 27.2161 4.12648C27.2838 3.88013 27.13 3.65716 26.8822 3.65375Z" fill="#F1F9F8"/>
<path d="M13.8548 1.86855C14.0267 1.63194 14.2219 1.47615 14.5009 1.45035C14.83 1.42016 15.0627 1.54772 15.1527 1.8666C15.2691 2.27993 15.3562 2.70056 15.459 3.11778C15.4862 3.22976 15.4497 3.27893 15.3348 3.29937C14.9273 3.37143 14.9984 3.46539 14.8967 3.0433C14.8285 2.75995 14.7613 2.47612 14.6907 2.19327C14.6454 2.01265 14.5564 1.8739 14.3402 1.90116C14.2891 1.90664 14.2397 1.92257 14.195 1.94797C14.1504 1.97337 14.1114 2.00768 14.0806 2.04878C14.0498 2.08988 14.0277 2.13689 14.0159 2.18687C14.004 2.23686 14.0025 2.28875 14.0116 2.33932C14.0639 2.67541 14.1345 3.00841 14.2229 3.33686C14.2774 3.53647 14.1844 3.57639 14.0281 3.6017C13.8821 3.62556 13.7409 3.71319 13.6922 3.46003C13.5978 2.96735 13.4697 2.48099 13.3646 1.98977C13.3466 1.90506 13.2394 1.75803 13.4186 1.73905C13.5647 1.72249 13.7837 1.50536 13.8548 1.86855Z" fill="#F1F9F8"/>
<path d="M12.5384 3.85039C12.3924 4.19118 12.1923 4.39906 11.8598 4.44142C11.6222 4.47111 11.427 4.39273 11.2994 4.18388C11.0599 3.78759 10.9099 3.34651 10.7055 2.93415C10.668 2.85967 10.6894 2.81488 10.7678 2.78469C10.8519 2.75398 10.9333 2.71637 11.0112 2.67223C11.1168 2.60943 11.1626 2.64351 11.2059 2.75013C11.3442 3.06998 11.4937 3.38302 11.6397 3.70093C11.7254 3.8869 11.8422 4.02176 12.073 3.93461C12.2775 3.85769 12.3685 3.64251 12.2765 3.41126C12.1499 3.0953 12.0141 2.78275 11.8637 2.47847C11.7882 2.32609 11.8568 2.26377 11.9771 2.23505C12.0973 2.20632 12.2371 1.99163 12.3524 2.25452C12.5613 2.72919 12.7794 3.19948 12.9912 3.67269C13.0345 3.77006 13.126 3.88398 12.9381 3.93851C12.7974 3.98135 12.6338 4.18339 12.5384 3.85039Z" fill="#F1F9F8"/>
<path d="M27.9006 6.14402C27.7969 6.06467 27.6626 5.99213 27.5735 5.8821C27.5087 5.80226 27.6285 5.72923 27.6757 5.66156C28.0988 5.05788 28.5286 4.45906 28.9483 3.85343C29.0389 3.72296 29.1124 3.66356 29.2443 3.79501C29.3465 3.89725 29.5719 3.91818 29.3879 4.16355C28.9313 4.77113 28.5014 5.40402 28.0598 6.02183C28.0238 6.07246 27.9985 6.13964 27.9006 6.14402Z" fill="#F1F9F8"/>
<path d="M7.35225 5.16052C7.35225 4.9059 7.46958 4.74817 7.68671 4.65713C7.79333 4.61234 7.86927 4.60844 7.90822 4.7433C7.9569 4.90736 8.07764 5.05731 7.79576 5.16344C7.59713 5.23842 7.6463 5.44678 7.73929 5.60501C7.91 5.89022 8.10811 6.15812 8.3308 6.40489C8.50265 6.59963 8.32642 6.64393 8.22662 6.73253C8.11854 6.8299 8.03529 6.91267 7.90433 6.73253C7.61222 6.33332 7.2948 5.95359 6.99685 5.56168C6.94379 5.49109 6.77631 5.41903 6.89072 5.31388C7.00513 5.20872 7.11515 4.98575 7.35225 5.16052Z" fill="#F1F9F8"/>
<path d="M25.9284 2.73752C25.8408 2.846 25.747 2.94938 25.6475 3.04715C25.575 3.1119 25.5424 3.00674 25.4932 2.97705C25.3131 2.86751 25.1656 2.89818 25.0395 3.08999C24.8559 3.36993 24.7707 3.69465 24.6373 3.99795C24.6057 4.06903 24.6106 4.20681 24.4884 4.18344C24.3445 4.16066 24.2085 4.103 24.0921 4.01548C24.0473 3.97897 24.0989 3.92444 24.1154 3.88257C24.3155 3.36993 24.5185 2.8602 24.7201 2.34707C24.7405 2.29547 24.7556 2.21417 24.8238 2.24045C24.9548 2.28914 25.1602 2.28476 25.1923 2.42643C25.2279 2.58076 25.2678 2.53548 25.3579 2.50335C25.5477 2.43568 25.7055 2.51357 25.8471 2.6348C25.8772 2.66654 25.9045 2.70092 25.9284 2.73752Z" fill="#F1F9F8"/>
<path d="M28.861 6.92285C28.7637 6.83619 28.638 6.75294 28.5524 6.63951C28.4803 6.54214 28.6118 6.48908 28.6619 6.42968C28.9861 6.04702 29.3284 5.67897 29.6409 5.28706C29.787 5.1045 29.8887 5.21063 29.99 5.29631C30.0913 5.382 30.2071 5.46233 30.0567 5.62639C29.6925 6.02414 29.3464 6.43844 28.993 6.84593C28.9618 6.88147 28.9375 6.92675 28.861 6.92285Z" fill="#F1F9F8"/>
<path d="M30.2726 4.60743C30.3281 4.61035 30.6421 4.91512 30.6192 4.94822C30.5394 5.06604 30.4659 5.19748 30.3271 5.25542C30.2634 5.28268 29.9683 5.00226 29.9727 4.93556C29.9776 4.88883 30.2346 4.60548 30.2726 4.60743Z" fill="#F1F9F8"/>
<path d="M24.5928 34.5659C24.3893 34.5591 24.2827 34.4155 24.2034 34.2558C24.1167 34.083 24.0296 33.8965 24.1956 33.7203C24.3027 33.6049 24.4283 33.5518 24.5851 33.6375C24.7691 33.7388 24.9541 34.0976 24.903 34.3006C24.864 34.4476 24.7681 34.5547 24.5928 34.5659Z" fill="#C3BADD"/>
<path d="M30.0429 30.8079C30.0643 30.8283 30.0945 30.8473 30.0575 30.8799C30.0463 30.8614 30.0351 30.8429 30.0234 30.8244L30.0429 30.8079Z" fill="#C3BADD"/>
<path d="M19.7653 35.2206C19.7653 35.5185 19.6324 35.6855 19.3948 35.6855C19.1373 35.6855 18.9854 35.4995 18.9883 35.1889C18.9912 34.9295 19.1621 34.7255 19.3832 34.7187C19.592 34.7118 19.7653 34.9411 19.7653 35.2206Z" fill="#C3BADD"/>
<path d="M26.7813 33.3921C26.7672 33.5839 26.6839 33.712 26.4892 33.7266C26.3689 33.7358 26.2945 33.6589 26.2891 33.5319C26.2852 33.4486 26.5588 33.1453 26.6348 33.1555C26.7774 33.1769 26.7574 33.3035 26.7813 33.3921Z" fill="#C3BADD"/>
<path d="M13.542 34.2489C13.5576 34.3949 13.4909 34.4178 13.3697 34.3667C13.3154 34.3524 13.2622 34.3343 13.2105 34.3126C13.1272 34.2639 12.9602 34.3019 12.9734 34.1607C12.9831 34.0497 13.1009 33.966 13.2168 33.9538C13.281 33.942 13.3474 33.9531 13.4043 33.9852C13.4611 34.0174 13.5049 34.0685 13.5279 34.1296C13.5379 34.1685 13.5426 34.2086 13.542 34.2489Z" fill="#C3BADD"/>
<path d="M9.22869 32.7607C9.35235 32.7933 9.5208 32.7938 9.61232 32.9194C9.65857 32.9812 9.38643 33.2017 9.2691 33.1949C9.10649 33.1852 8.98235 33.1053 8.97699 32.9384C8.96872 32.802 9.08069 32.7553 9.22869 32.7607Z" fill="#C3BADD"/>
<path d="M11.2033 33.8844L11.1797 33.904L11.1993 33.8809L11.2033 33.8844Z" fill="#C3BADD"/>
<path d="M8.38214 31.1582L8.35547 31.1773L8.3751 31.1506L8.38214 31.1582Z" fill="#C3BADD"/>
<path d="M17.3646 2.15125C17.3554 2.28367 17.3442 2.41074 17.2639 2.52174C17.1042 2.74471 16.8082 2.75591 16.6553 2.52758C16.4873 2.27734 16.4761 1.99546 16.573 1.71748C16.5965 1.64773 16.6414 1.58721 16.7014 1.54461C16.7615 1.50202 16.8334 1.47953 16.907 1.48038C17.0691 1.47357 17.1825 1.55341 17.2634 1.68681C17.351 1.83042 17.3486 1.99595 17.3646 2.15125Z" fill="#04A694"/>
<path d="M20.4159 1.725L20.3672 1.74593C20.3716 1.72792 20.376 1.70991 20.3798 1.69189C20.3935 1.70407 20.4047 1.7138 20.4159 1.725Z" fill="#04A694"/>
<path d="M9.05472 4.43767C9.05355 4.32287 9.09793 4.21229 9.17814 4.13016C9.25836 4.04803 9.36786 4.00105 9.48265 3.99951C9.77037 4.00487 10.0834 4.36562 10.0815 4.68888C10.0815 4.7455 10.0704 4.80157 10.0487 4.85388C10.0271 4.90618 9.99529 4.9537 9.95521 4.99368C9.91513 5.03367 9.86755 5.06535 9.81519 5.0869C9.76284 5.10845 9.70674 5.11944 9.65012 5.11925C9.35607 5.11925 9.05131 4.77116 9.05472 4.43767Z" fill="#04A694"/>
<path d="M6.78764 7.53971C6.7818 7.6075 6.75669 7.67221 6.71529 7.72621C6.67389 7.7802 6.61791 7.82124 6.55395 7.84447C6.38599 7.90971 6.20684 7.76853 6.24822 7.59716C6.2896 7.42579 6.39427 7.29337 6.48628 7.14975C6.4904 7.14044 6.49689 7.13238 6.50511 7.12638C6.51332 7.12038 6.52297 7.11665 6.53309 7.11557C6.54321 7.11448 6.55343 7.11608 6.56274 7.1202C6.57204 7.12432 6.58009 7.13082 6.58609 7.13904C6.68394 7.23543 6.79202 7.32647 6.78764 7.53971Z" fill="#04A694"/>
<path d="M22.775 3.23663C22.5992 3.23663 22.46 3.15825 22.4498 2.9786C22.4391 2.79117 22.5861 2.74151 22.7497 2.74346C22.7821 2.73834 22.8152 2.73983 22.847 2.74784C22.9502 2.79896 23.1343 2.65047 23.1654 2.84521C23.1966 3.03994 22.9795 3.23225 22.775 3.23663Z" fill="#04A694"/>
<path d="M30.8106 7.56174C30.6558 7.74869 30.5063 7.848 30.297 7.78666C30.2374 7.77307 30.1827 7.74306 30.1393 7.70005C30.0958 7.65703 30.0653 7.60271 30.0511 7.54324C30.0381 7.49578 30.0407 7.44538 30.0587 7.39957C30.0767 7.35376 30.1091 7.315 30.1509 7.28911C30.2663 7.21267 30.3695 7.27596 30.4664 7.33487C30.5823 7.404 30.6928 7.48287 30.8106 7.56174Z" fill="#04A694"/>
<path d="M26.8791 3.65366C27.1269 3.65707 27.2808 3.88004 27.2116 4.12541C27.1819 4.23154 27.1357 4.25394 27.0417 4.19454C26.9478 4.13515 26.8407 4.09084 26.7496 4.02463C26.6766 3.97011 26.5062 3.97595 26.5617 3.8299C26.6099 3.70624 26.7375 3.6483 26.8791 3.65366Z" fill="#04A694"/>
</g>
<path d="M44.63 36L56.516 5.76H59.75L71.342 36H68.402L64.916 26.508H51.14L47.57 36H44.63ZM52.106 24.072H63.95L58.028 8.196L52.106 24.072ZM77.6837 36H75.1637V14.244H77.6837V18.318H77.7677C78.4677 16.582 79.3637 15.378 80.4557 14.706C81.5757 14.006 83.0457 13.656 84.8657 13.656V16.386C83.4377 16.358 82.2617 16.582 81.3377 17.058C80.4137 17.534 79.6717 18.178 79.1117 18.99C78.5797 19.802 78.2017 20.768 77.9777 21.888C77.7817 22.98 77.6837 24.128 77.6837 25.332V36ZM96.9377 36.588C95.5377 36.56 94.2217 36.308 92.9897 35.832C91.7857 35.356 90.7217 34.642 89.7977 33.69C88.9017 32.738 88.1877 31.548 87.6557 30.12C87.1237 28.692 86.8577 27.026 86.8577 25.122C86.8577 23.526 87.0677 22.042 87.4877 20.67C87.9077 19.27 88.5377 18.052 89.3777 17.016C90.2177 15.98 91.2677 15.168 92.5277 14.58C93.7877 13.964 95.2577 13.656 96.9377 13.656C98.6457 13.656 100.13 13.964 101.39 14.58C102.65 15.168 103.7 15.98 104.54 17.016C105.38 18.024 105.996 19.228 106.388 20.628C106.808 22.028 107.018 23.526 107.018 25.122C107.018 26.858 106.78 28.426 106.304 29.826C105.828 31.226 105.142 32.43 104.246 33.438C103.378 34.446 102.314 35.23 101.054 35.79C99.8217 36.322 98.4497 36.588 96.9377 36.588ZM104.33 25.122C104.33 23.834 104.19 22.63 103.91 21.51C103.63 20.39 103.196 19.424 102.608 18.612C102.02 17.772 101.264 17.114 100.34 16.638C99.4157 16.162 98.2817 15.924 96.9377 15.924C95.6217 15.924 94.4877 16.19 93.5357 16.722C92.6117 17.226 91.8557 17.912 91.2677 18.78C90.6797 19.62 90.2457 20.6 89.9657 21.72C89.6857 22.812 89.5457 23.946 89.5457 25.122C89.5457 26.466 89.6997 27.712 90.0077 28.86C90.3437 29.98 90.8197 30.946 91.4357 31.758C92.0517 32.57 92.8217 33.2 93.7457 33.648C94.6697 34.096 95.7337 34.32 96.9377 34.32C98.2537 34.32 99.3737 34.068 100.298 33.564C101.25 33.032 102.02 32.332 102.608 31.464C103.196 30.596 103.63 29.616 103.91 28.524C104.19 27.432 104.33 26.298 104.33 25.122ZM126.366 14.244H128.886V36H126.366V32.976C126.03 33.368 125.652 33.774 125.232 34.194C124.812 34.614 124.322 35.006 123.762 35.37C123.23 35.706 122.6 35.986 121.872 36.21C121.144 36.462 120.304 36.588 119.352 36.588C117.896 36.588 116.678 36.392 115.698 36C114.718 35.58 113.92 35.006 113.304 34.278C112.716 33.55 112.282 32.71 112.002 31.758C111.75 30.778 111.624 29.714 111.624 28.566V14.244H114.144V28.524C114.144 30.4 114.578 31.842 115.446 32.85C116.314 33.83 117.742 34.32 119.73 34.32C120.766 34.32 121.69 34.124 122.502 33.732C123.342 33.312 124.042 32.738 124.602 32.01C125.162 31.282 125.596 30.414 125.904 29.406C126.212 28.398 126.366 27.292 126.366 26.088V14.244ZM137.481 36H134.962V14.244H137.481V17.268C138.49 16.204 139.526 15.336 140.59 14.664C141.682 13.992 142.984 13.656 144.496 13.656C145.84 13.656 147.086 13.894 148.234 14.37C149.382 14.818 150.348 15.616 151.132 16.764C151.664 17.548 151.972 18.36 152.056 19.2C152.168 20.012 152.224 20.866 152.224 21.762V36H149.704V21.804C149.704 19.844 149.27 18.374 148.402 17.394C147.534 16.414 146.092 15.924 144.076 15.924C143.292 15.924 142.578 16.05 141.934 16.302C141.29 16.526 140.702 16.834 140.17 17.226C139.666 17.618 139.232 18.066 138.868 18.57C138.504 19.074 138.224 19.606 138.028 20.166C137.776 20.866 137.622 21.538 137.566 22.182C137.51 22.826 137.481 23.526 137.481 24.282V36ZM175.099 25.038C175.099 23.806 174.931 22.644 174.595 21.552C174.259 20.432 173.769 19.466 173.125 18.654C172.509 17.814 171.739 17.156 170.815 16.68C169.919 16.176 168.897 15.924 167.749 15.924C166.433 15.924 165.299 16.19 164.347 16.722C163.395 17.226 162.611 17.926 161.995 18.822C161.379 19.718 160.931 20.768 160.651 21.972C160.371 23.148 160.259 24.422 160.315 25.794C160.315 27.166 160.497 28.384 160.861 29.448C161.253 30.484 161.785 31.366 162.457 32.094C163.129 32.822 163.913 33.382 164.809 33.774C165.705 34.138 166.685 34.32 167.749 34.32C168.925 34.32 169.975 34.082 170.899 33.606C171.823 33.13 172.593 32.486 173.209 31.674C173.825 30.834 174.287 29.854 174.595 28.734C174.931 27.586 175.099 26.354 175.099 25.038ZM175.099 5.76H177.619V36H175.099V32.178H175.015C174.651 32.906 174.175 33.55 173.587 34.11C173.027 34.642 172.397 35.09 171.697 35.454C171.025 35.818 170.325 36.098 169.597 36.294C168.869 36.49 168.155 36.588 167.455 36.588C165.691 36.588 164.193 36.294 162.961 35.706C161.729 35.118 160.707 34.32 159.895 33.312C159.111 32.276 158.537 31.058 158.173 29.658C157.809 28.258 157.627 26.76 157.627 25.164C157.627 23.652 157.823 22.196 158.215 20.796C158.607 19.396 159.195 18.178 159.979 17.142C160.791 16.078 161.799 15.238 163.003 14.622C164.235 13.978 165.677 13.656 167.329 13.656C168.869 13.656 170.339 14.006 171.739 14.706C173.167 15.378 174.287 16.386 175.099 17.73V5.76Z" fill="#04A694"/>
<path d="M196.211 36V5.76H199.067V21.426L214.565 5.76H217.799L205.871 17.814L219.899 36H216.413L203.813 19.578L199.067 24.324V36H196.211ZM237.916 24.576C236.852 25.024 235.774 25.318 234.682 25.458C233.59 25.598 232.498 25.71 231.406 25.794C229.474 25.934 227.962 26.368 226.87 27.096C225.806 27.824 225.274 28.93 225.274 30.414C225.274 31.086 225.4 31.674 225.652 32.178C225.932 32.654 226.282 33.06 226.702 33.396C227.15 33.704 227.654 33.942 228.214 34.11C228.802 34.25 229.39 34.32 229.978 34.32C230.986 34.32 231.966 34.194 232.918 33.942C233.87 33.69 234.71 33.312 235.438 32.808C236.194 32.276 236.796 31.618 237.244 30.834C237.692 30.022 237.916 29.07 237.916 27.978V24.576ZM233.674 23.316C234.15 23.26 234.71 23.176 235.354 23.064C236.026 22.952 236.572 22.798 236.992 22.602C237.412 22.406 237.664 22.084 237.748 21.636C237.86 21.16 237.916 20.726 237.916 20.334C237.916 19.046 237.496 17.996 236.656 17.184C235.844 16.344 234.458 15.924 232.498 15.924C231.63 15.924 230.832 16.008 230.104 16.176C229.376 16.316 228.732 16.582 228.172 16.974C227.64 17.338 227.192 17.842 226.828 18.486C226.492 19.102 226.268 19.886 226.156 20.838H223.594C223.678 19.55 223.972 18.458 224.476 17.562C224.98 16.638 225.624 15.896 226.408 15.336C227.22 14.748 228.144 14.328 229.18 14.076C230.244 13.796 231.364 13.656 232.54 13.656C233.632 13.656 234.654 13.782 235.606 14.034C236.586 14.258 237.426 14.636 238.126 15.168C238.854 15.672 239.414 16.358 239.806 17.226C240.226 18.094 240.436 19.158 240.436 20.418V32.262C240.436 33.242 240.604 33.872 240.94 34.152C241.304 34.404 242.018 34.334 243.082 33.942V35.916C242.886 35.972 242.592 36.056 242.2 36.168C241.836 36.28 241.472 36.336 241.108 36.336C240.716 36.336 240.338 36.294 239.974 36.21C239.554 36.154 239.218 36.028 238.966 35.832C238.714 35.608 238.504 35.356 238.336 35.076C238.196 34.768 238.098 34.446 238.042 34.11C237.986 33.746 237.958 33.368 237.958 32.976C236.894 34.152 235.676 35.048 234.304 35.664C232.932 36.28 231.448 36.588 229.852 36.588C228.9 36.588 227.976 36.462 227.08 36.21C226.212 35.958 225.442 35.566 224.77 35.034C224.098 34.502 223.566 33.858 223.174 33.102C222.782 32.318 222.586 31.394 222.586 30.33C222.586 26.634 225.12 24.45 230.188 23.778L233.674 23.316ZM249.662 36H247.142V14.244H249.662V18.318H249.746C250.446 16.582 251.342 15.378 252.434 14.706C253.554 14.006 255.024 13.656 256.844 13.656V16.386C255.416 16.358 254.24 16.582 253.316 17.058C252.392 17.534 251.65 18.178 251.09 18.99C250.558 19.802 250.18 20.768 249.956 21.888C249.76 22.98 249.662 24.128 249.662 25.332V36ZM276.014 23.61C276.014 22.546 275.86 21.552 275.552 20.628C275.272 19.676 274.838 18.864 274.25 18.192C273.69 17.492 272.976 16.946 272.108 16.554C271.24 16.134 270.246 15.924 269.126 15.924C268.006 15.924 267.012 16.134 266.144 16.554C265.304 16.974 264.576 17.534 263.96 18.234C263.372 18.934 262.896 19.746 262.532 20.67C262.168 21.594 261.93 22.574 261.818 23.61H276.014ZM261.818 25.71C261.818 26.886 261.972 28.006 262.28 29.07C262.588 30.106 263.036 31.016 263.624 31.8C264.24 32.556 265.01 33.172 265.934 33.648C266.858 34.096 267.922 34.32 269.126 34.32C270.778 34.32 272.192 33.886 273.368 33.018C274.544 32.15 275.328 30.918 275.72 29.322H278.534C278.226 30.358 277.82 31.324 277.316 32.22C276.812 33.088 276.182 33.858 275.426 34.53C274.67 35.174 273.774 35.678 272.738 36.042C271.702 36.406 270.498 36.588 269.126 36.588C267.39 36.588 265.892 36.294 264.632 35.706C263.372 35.118 262.336 34.32 261.524 33.312C260.712 32.276 260.11 31.072 259.718 29.7C259.326 28.3 259.13 26.802 259.13 25.206C259.13 23.61 259.354 22.112 259.802 20.712C260.278 19.312 260.936 18.094 261.776 17.058C262.644 15.994 263.694 15.168 264.926 14.58C266.158 13.964 267.558 13.656 269.126 13.656C272.122 13.656 274.474 14.692 276.182 16.764C277.89 18.808 278.73 21.79 278.702 25.71H261.818ZM283.98 36V5.76H286.5V36H283.98ZM292.552 36V14.244H295.072V36H292.552ZM292.426 9.498V5.76H295.198V9.498H292.426ZM315.723 24.576C314.659 25.024 313.581 25.318 312.489 25.458C311.397 25.598 310.305 25.71 309.213 25.794C307.281 25.934 305.769 26.368 304.677 27.096C303.613 27.824 303.081 28.93 303.081 30.414C303.081 31.086 303.207 31.674 303.459 32.178C303.739 32.654 304.089 33.06 304.509 33.396C304.957 33.704 305.461 33.942 306.021 34.11C306.609 34.25 307.197 34.32 307.785 34.32C308.793 34.32 309.773 34.194 310.725 33.942C311.677 33.69 312.517 33.312 313.245 32.808C314.001 32.276 314.603 31.618 315.051 30.834C315.499 30.022 315.723 29.07 315.723 27.978V24.576ZM311.481 23.316C311.957 23.26 312.517 23.176 313.161 23.064C313.833 22.952 314.379 22.798 314.799 22.602C315.219 22.406 315.471 22.084 315.555 21.636C315.667 21.16 315.723 20.726 315.723 20.334C315.723 19.046 315.303 17.996 314.463 17.184C313.651 16.344 312.265 15.924 310.305 15.924C309.437 15.924 308.639 16.008 307.911 16.176C307.183 16.316 306.539 16.582 305.979 16.974C305.447 17.338 304.999 17.842 304.635 18.486C304.299 19.102 304.075 19.886 303.963 20.838H301.401C301.485 19.55 301.779 18.458 302.283 17.562C302.787 16.638 303.431 15.896 304.215 15.336C305.027 14.748 305.951 14.328 306.987 14.076C308.051 13.796 309.171 13.656 310.347 13.656C311.439 13.656 312.461 13.782 313.413 14.034C314.393 14.258 315.233 14.636 315.933 15.168C316.661 15.672 317.221 16.358 317.613 17.226C318.033 18.094 318.243 19.158 318.243 20.418V32.262C318.243 33.242 318.411 33.872 318.747 34.152C319.111 34.404 319.825 34.334 320.889 33.942V35.916C320.693 35.972 320.399 36.056 320.007 36.168C319.643 36.28 319.279 36.336 318.915 36.336C318.523 36.336 318.145 36.294 317.781 36.21C317.361 36.154 317.025 36.028 316.773 35.832C316.521 35.608 316.311 35.356 316.143 35.076C316.003 34.768 315.905 34.446 315.849 34.11C315.793 33.746 315.765 33.368 315.765 32.976C314.701 34.152 313.483 35.048 312.111 35.664C310.739 36.28 309.255 36.588 307.659 36.588C306.707 36.588 305.783 36.462 304.887 36.21C304.019 35.958 303.249 35.566 302.577 35.034C301.905 34.502 301.373 33.858 300.981 33.102C300.589 32.318 300.393 31.394 300.393 30.33C300.393 26.634 302.927 24.45 307.995 23.778L311.481 23.316Z" fill="#C3BADD"/>
<defs>
<clipPath id="clip0_639_105">
<rect width="37" height="37" fill="white"/>
</clipPath>
</defs>
</svg>
